<?xml version="1.0" encoding="UTF-8"?>
<svg id="Layer_1" data-name="Layer 1" xmlns="http://www.w3.org/2000/svg" viewBox="0 0 1630.65 723.2">
  <defs>
    <style>
      .cls-1 {
        fill: #111115;
      }

      .cls-1, .cls-2, .cls-3 {
        stroke-width: 0px;
      }

      .cls-2 {
        fill: #090912;
      }

      .cls-3 {
        fill: #0073ff;
      }
    </style>
  </defs>
  <g>
    <path class="cls-2" d="m65.48,545.65c-11.2,0-21.27-2.62-30.21-7.86-8.93-5.24-15.97-12.78-21.11-22.62-5.14-9.84-7.71-21.67-7.71-35.48s2.57-25.74,7.71-35.61c5.14-9.87,12.18-17.42,21.11-22.66,8.93-5.24,19-7.86,30.21-7.86s21.31,2.62,30.16,7.86c8.85,5.24,15.86,12.79,21.03,22.66,5.17,9.87,7.76,21.74,7.76,35.61s-2.59,25.64-7.76,35.48c-5.17,9.84-12.18,17.38-21.03,22.62-8.85,5.24-18.9,7.86-30.16,7.86Zm0-20.89c6.95,0,13.1-1.73,18.44-5.18,5.34-3.45,9.54-8.53,12.58-15.24,3.04-6.7,4.57-14.92,4.57-24.65s-1.52-18.04-4.57-24.78c-3.05-6.73-7.24-11.83-12.58-15.28-5.34-3.45-11.49-5.18-18.44-5.18s-13.11,1.73-18.49,5.18c-5.37,3.45-9.58,8.55-12.62,15.28-3.05,6.73-4.57,14.99-4.57,24.78s1.52,17.94,4.57,24.65c3.04,6.71,7.25,11.78,12.62,15.24,5.37,3.45,11.53,5.18,18.49,5.18Z"/>
    <path class="cls-2" d="m138.82,580.01v-132.59h22.23v15.97h1.38c1.15-2.3,2.79-4.79,4.91-7.47,2.12-2.68,5.01-4.96,8.66-6.86,3.65-1.9,8.32-2.85,14-2.85,7.41,0,14.1,1.9,20.08,5.7,5.97,3.8,10.73,9.38,14.26,16.75,3.53,7.37,5.3,16.43,5.3,27.19s-1.72,19.6-5.17,27.02-8.17,13.08-14.18,16.96c-6,3.88-12.8,5.83-20.38,5.83-5.46,0-10.01-.94-13.66-2.81-3.65-1.87-6.58-4.11-8.79-6.73-2.21-2.62-3.89-5.11-5.04-7.47h-.95v51.36h-22.67Zm44.9-53c5,0,9.18-1.35,12.54-4.06,3.36-2.7,5.9-6.42,7.63-11.14,1.72-4.72,2.59-10.07,2.59-16.06s-.86-11.31-2.59-15.97c-1.72-4.66-4.25-8.32-7.58-10.96-3.33-2.65-7.53-3.97-12.58-3.97s-9.01,1.27-12.37,3.8c-3.36,2.53-5.92,6.12-7.67,10.75-1.75,4.63-2.63,10.09-2.63,16.36s.88,11.67,2.63,16.36c1.75,4.69,4.32,8.35,7.71,10.96,3.39,2.62,7.5,3.93,12.32,3.93Z"/>
    <path class="cls-2" d="m253.61,433.86c-3.62,0-6.72-1.21-9.31-3.63s-3.88-5.32-3.88-8.72,1.29-6.39,3.88-8.81,5.69-3.63,9.31-3.63,6.64,1.21,9.22,3.63,3.88,5.32,3.88,8.72-1.29,6.39-3.88,8.81-5.66,3.63-9.22,3.63Zm-11.38,110.06v-96.51h22.67v96.51h-22.67Z"/>
    <path class="cls-2" d="m304.28,487.47v56.46h-22.67v-96.51h22.23v16.49h1.12c2.18-5.41,5.62-9.71,10.3-12.91,4.68-3.19,10.64-4.79,17.88-4.79,6.66,0,12.47,1.41,17.41,4.23,4.94,2.82,8.78,6.95,11.5,12.39,2.73,5.44,4.09,12.01,4.09,19.73v61.38h-22.67v-57.84c0-6.44-1.67-11.49-5-15.15-3.33-3.65-7.93-5.48-13.79-5.48-3.96,0-7.48.86-10.56,2.59-3.07,1.73-5.49,4.22-7.24,7.47-1.75,3.25-2.63,7.24-2.63,11.96Z"/>
    <path class="cls-2" d="m394.25,433.86c-3.62,0-6.72-1.21-9.31-3.63s-3.88-5.32-3.88-8.72,1.29-6.39,3.88-8.81,5.69-3.63,9.31-3.63,6.64,1.21,9.22,3.63,3.88,5.32,3.88,8.72-1.29,6.39-3.88,8.81-5.66,3.63-9.22,3.63Zm-11.38,110.06v-96.51h22.67v96.51h-22.67Z"/>
    <path class="cls-2" d="m464.23,545.82c-9.42,0-17.58-2.07-24.48-6.22-6.89-4.14-12.22-9.96-15.99-17.44-3.76-7.48-5.65-16.17-5.65-26.07s1.88-18.69,5.65-26.2c3.76-7.51,9.09-13.34,15.99-17.48,6.89-4.14,15.05-6.22,24.48-6.22s17.58,2.07,24.48,6.22c6.89,4.14,12.24,9.97,16.03,17.48,3.79,7.51,5.69,16.24,5.69,26.2s-1.9,18.59-5.69,26.07c-3.79,7.48-9.14,13.29-16.03,17.44-6.89,4.14-15.05,6.22-24.48,6.22Zm11.81-111.1c-2.59,0-4.93-.42-7.02-1.25-2.1-.83-4.02-1.81-5.77-2.94-1.75-1.12-3.38-2.09-4.87-2.89-1.49-.81-2.87-1.21-4.14-1.21-1.67,0-2.93.75-3.79,2.24-.86,1.5-1.35,3.37-1.47,5.61h-13.19c.17-6.68,1.72-11.9,4.65-15.67,2.93-3.77,6.95-5.65,12.07-5.65,2.59,0,4.9.42,6.94,1.25,2.04.83,3.91,1.81,5.6,2.94,1.69,1.12,3.27,2.1,4.74,2.94,1.46.83,2.94,1.25,4.44,1.25,1.78,0,3.09-.66,3.92-1.99.83-1.32,1.36-3.31,1.59-5.96h12.93c-.17,6.73-1.78,11.97-4.83,15.71-3.05,3.74-6.98,5.61-11.81,5.61Zm-11.81,92.8c5.23,0,9.54-1.4,12.93-4.19,3.39-2.79,5.93-6.57,7.63-11.35,1.69-4.78,2.54-10.07,2.54-15.88s-.85-11.28-2.54-16.06c-1.7-4.78-4.24-8.56-7.63-11.35-3.39-2.79-7.7-4.19-12.93-4.19s-9.39,1.4-12.84,4.19c-3.45,2.79-6.02,6.58-7.71,11.35-1.7,4.78-2.54,10.13-2.54,16.06s.85,11.11,2.54,15.88c1.69,4.78,4.27,8.56,7.71,11.35,3.45,2.79,7.73,4.19,12.84,4.19Z"/>
    <path class="cls-2" d="m565.58,545.82c-9.65,0-17.98-2.03-24.99-6.09-7.01-4.06-12.4-9.8-16.16-17.22-3.76-7.42-5.65-16.17-5.65-26.24s1.87-18.69,5.6-26.2c3.73-7.51,8.99-13.37,15.77-17.57,6.78-4.2,14.77-6.3,23.96-6.3,5.92,0,11.53.95,16.85,2.85,5.31,1.9,10.03,4.83,14.13,8.8,4.11,3.97,7.34,9.02,9.69,15.15,2.36,6.13,3.53,13.42,3.53,21.88v7.08h-78.94v-15.28h67.65l-10.6,4.49c0-5.47-.83-10.23-2.5-14.29-1.67-4.06-4.14-7.24-7.41-9.54-3.27-2.3-7.35-3.45-12.24-3.45s-9.05,1.15-12.5,3.45c-3.45,2.3-6.06,5.4-7.84,9.28-1.78,3.88-2.67,8.22-2.67,12.99v10.62c0,5.87,1.02,10.89,3.06,15.06,2.04,4.17,4.91,7.35,8.62,9.54,3.71,2.19,8.03,3.28,12.97,3.28,3.22,0,6.16-.46,8.83-1.38,2.67-.92,4.97-2.32,6.89-4.19,1.92-1.87,3.4-4.19,4.44-6.95l21.2,2.5c-1.38,5.58-3.92,10.46-7.63,14.63-3.71,4.17-8.45,7.4-14.22,9.67-5.77,2.27-12.4,3.41-19.86,3.41Z"/>
    <path class="cls-2" d="m696.57,473.05l-20.6,2.16c-.86-3.16-2.73-5.97-5.6-8.42-2.87-2.45-6.92-3.67-12.15-3.67-4.71,0-8.66,1.04-11.85,3.11-3.19,2.07-4.78,4.72-4.78,7.94,0,2.82,1.05,5.14,3.15,6.95,2.1,1.81,5.59,3.27,10.47,4.36l16.46,3.45c9.02,1.9,15.77,5.01,20.25,9.32s6.72,9.9,6.72,16.75c0,6.04-1.75,11.39-5.26,16.06-3.5,4.66-8.35,8.29-14.52,10.88-6.18,2.59-13.29,3.88-21.33,3.88-11.78,0-21.24-2.49-28.4-7.47-7.15-4.98-11.45-11.9-12.88-20.76l22.15-2.07c.98,4.32,3.12,7.58,6.42,9.8,3.3,2.22,7.54,3.32,12.71,3.32s9.74-1.11,13.01-3.32c3.27-2.21,4.91-4.93,4.91-8.16,0-5.41-4.31-9.09-12.93-11.05l-16.46-3.45c-9.25-2.01-16.09-5.28-20.51-9.8-4.42-4.52-6.64-10.29-6.64-17.31,0-5.98,1.64-11.16,4.91-15.54,3.27-4.37,7.84-7.77,13.7-10.19,5.86-2.42,12.64-3.63,20.34-3.63,11.32,0,20.21,2.43,26.67,7.29,6.46,4.86,10.47,11.38,12.02,19.55Z"/>
    <path class="cls-2" d="m766.2,415.3l33.35,101.17h1.38l33.35-101.17h25.51l-45.24,128.62h-28.61l-45.33-128.62h25.6Z"/>
    <path class="cls-2" d="m901.51,545.82c-9.65,0-17.98-2.03-24.99-6.09-7.01-4.06-12.4-9.8-16.16-17.22-3.76-7.42-5.65-16.17-5.65-26.24s1.87-18.69,5.6-26.2c3.73-7.51,8.99-13.37,15.77-17.57,6.78-4.2,14.77-6.3,23.96-6.3,5.92,0,11.53.95,16.85,2.85,5.31,1.9,10.03,4.83,14.13,8.8,4.11,3.97,7.34,9.02,9.69,15.15,2.36,6.13,3.53,13.42,3.53,21.88v7.08h-78.94v-15.28h67.65l-10.6,4.49c0-5.47-.83-10.23-2.5-14.29-1.67-4.06-4.14-7.24-7.41-9.54-3.27-2.3-7.35-3.45-12.24-3.45s-9.05,1.15-12.5,3.45c-3.45,2.3-6.06,5.4-7.84,9.28-1.78,3.88-2.67,8.22-2.67,12.99v10.62c0,5.87,1.02,10.89,3.06,15.06,2.04,4.17,4.91,7.35,8.62,9.54,3.71,2.19,8.03,3.28,12.97,3.28,3.22,0,6.16-.46,8.83-1.38,2.67-.92,4.97-2.32,6.89-4.19,1.92-1.87,3.4-4.19,4.44-6.95l21.2,2.5c-1.38,5.58-3.92,10.46-7.63,14.63-3.71,4.17-8.45,7.4-14.22,9.67-5.77,2.27-12.4,3.41-19.86,3.41Z"/>
    <path class="cls-2" d="m956.49,543.92v-96.51h21.98v16.23h1.03c1.72-5.64,4.74-9.97,9.05-12.99,4.31-3.02,9.22-4.53,14.74-4.53,1.21,0,2.6.06,4.18.17,1.58.12,2.89.26,3.92.43v20.89c-.98-.35-2.5-.63-4.57-.86-2.07-.23-4.05-.35-5.95-.35-4.19,0-7.93.89-11.2,2.68-3.27,1.78-5.85,4.23-7.71,7.34-1.87,3.11-2.8,6.73-2.8,10.88v56.63h-22.67Z"/>
    <path class="cls-2" d="m1031.29,433.86c-3.62,0-6.72-1.21-9.31-3.63s-3.88-5.32-3.88-8.72,1.29-6.39,3.88-8.81,5.69-3.63,9.31-3.63,6.64,1.21,9.22,3.63,3.88,5.32,3.88,8.72-1.29,6.39-3.88,8.81-5.66,3.63-9.22,3.63Zm-11.38,110.06v-96.51h22.67v96.51h-22.67Z"/>
    <path class="cls-2" d="m1108.25,447.41v17.61h-56.79v-17.61h56.79Zm-42.66,96.51v-105.57c0-6.5,1.35-11.91,4.05-16.23,2.7-4.32,6.33-7.54,10.9-9.67,4.57-2.13,9.61-3.19,15.12-3.19,3.96,0,7.48.32,10.56.95,3.07.63,5.33,1.21,6.76,1.73l-4.65,17.61c-.92-.35-2.1-.68-3.53-.99-1.44-.32-3.07-.48-4.91-.48-4.19,0-7.2,1.04-9.01,3.11-1.81,2.07-2.71,5.01-2.71,8.8v103.93h-22.58Z"/>
    <path class="cls-2" d="m1130.92,433.86c-3.62,0-6.72-1.21-9.31-3.63s-3.88-5.32-3.88-8.72,1.29-6.39,3.88-8.81,5.69-3.63,9.31-3.63,6.64,1.21,9.22,3.63,3.88,5.32,3.88,8.72-1.29,6.39-3.88,8.81-5.66,3.63-9.22,3.63Zm-11.38,110.06v-96.51h22.67v96.51h-22.67Z"/>
    <path class="cls-2" d="m1200.89,545.82c-9.6,0-17.84-2.11-24.73-6.34s-12.18-10.08-15.86-17.57c-3.68-7.48-5.52-16.08-5.52-25.81s1.87-18.5,5.6-25.98c3.73-7.48,9.05-13.34,15.94-17.57,6.89-4.23,15.02-6.35,24.39-6.35,7.87,0,14.82,1.44,20.86,4.32,6.03,2.88,10.84,6.92,14.44,12.13,3.59,5.21,5.64,11.29,6.16,18.26h-21.72c-.57-3.11-1.7-5.9-3.36-8.37-1.67-2.47-3.83-4.43-6.51-5.87-2.67-1.44-5.85-2.16-9.52-2.16-4.65,0-8.72,1.25-12.19,3.76-3.48,2.5-6.19,6.09-8.14,10.75-1.95,4.66-2.93,10.24-2.93,16.75s.95,12.21,2.84,16.96c1.9,4.75,4.6,8.4,8.1,10.96,3.5,2.56,7.61,3.84,12.32,3.84,5,0,9.23-1.47,12.71-4.4,3.48-2.94,5.7-6.99,6.68-12.17h21.72c-.52,6.85-2.53,12.89-6.03,18.13-3.51,5.24-8.25,9.34-14.22,12.3-5.98,2.96-12.98,4.45-21.03,4.45Z"/>
    <path class="cls-2" d="m1282.16,545.91c-6.15,0-11.66-1.11-16.55-3.32-4.88-2.21-8.73-5.48-11.55-9.8-2.82-4.32-4.22-9.64-4.22-15.97,0-5.41,1-9.9,3.02-13.47,2.01-3.57,4.75-6.42,8.23-8.55,3.48-2.13,7.4-3.75,11.76-4.88,4.37-1.12,8.88-1.91,13.53-2.37,5.69-.63,10.28-1.18,13.79-1.64,3.5-.46,6.05-1.21,7.63-2.24,1.58-1.04,2.37-2.65,2.37-4.83v-.43c0-4.66-1.38-8.29-4.14-10.88-2.76-2.59-6.78-3.88-12.07-3.88-5.57,0-9.98,1.21-13.23,3.63-3.25,2.42-5.44,5.27-6.59,8.55l-21.11-3.02c1.67-5.87,4.42-10.78,8.27-14.72,3.85-3.94,8.54-6.91,14.09-8.89,5.54-1.99,11.68-2.98,18.4-2.98,4.6,0,9.19.53,13.79,1.6,4.6,1.07,8.82,2.86,12.67,5.4,3.85,2.53,6.92,5.93,9.22,10.19,2.3,4.26,3.45,9.58,3.45,15.97v64.57h-21.8v-13.29h-.69c-1.38,2.65-3.32,5.14-5.82,7.47-2.5,2.33-5.6,4.22-9.31,5.65-3.71,1.44-8.09,2.16-13.14,2.16Zm5.77-16.75c4.6,0,8.56-.91,11.89-2.72,3.33-1.81,5.92-4.23,7.76-7.25,1.84-3.02,2.76-6.31,2.76-9.88v-11.31c-.75.58-1.95,1.11-3.62,1.6-1.67.49-3.56.94-5.69,1.34-2.13.4-4.21.75-6.25,1.04-2.04.29-3.81.52-5.3.69-3.39.46-6.42,1.22-9.09,2.29-2.67,1.07-4.78,2.52-6.33,4.36-1.55,1.84-2.33,4.23-2.33,7.17,0,4.2,1.52,7.37,4.57,9.5,3.04,2.13,6.92,3.19,11.63,3.19Z"/>
    <path class="cls-2" d="m1385.23,545.65c-7.53,0-14.29-1.94-20.3-5.83-6-3.88-10.73-9.54-14.18-16.96s-5.17-16.43-5.17-27.02,1.77-19.83,5.3-27.19c3.53-7.37,8.29-12.95,14.26-16.75,5.97-3.8,12.67-5.7,20.08-5.7,5.69,0,10.34.95,13.96,2.85,3.62,1.9,6.51,4.19,8.66,6.86,2.15,2.68,3.81,5.17,4.96,7.47h.95v-48.08h22.58v128.62h-22.15v-15.28h-1.38c-1.21,2.36-2.9,4.85-5.08,7.47-2.18,2.62-5.08,4.86-8.7,6.73s-8.22,2.81-13.79,2.81Zm6.29-18.65c4.83,0,8.92-1.31,12.28-3.93,3.36-2.62,5.93-6.27,7.71-10.96,1.78-4.69,2.67-10.14,2.67-16.36s-.88-11.73-2.63-16.36c-1.75-4.63-4.31-8.21-7.67-10.75-3.36-2.53-7.48-3.8-12.37-3.8s-9.19,1.32-12.58,3.97c-3.39,2.65-5.93,6.3-7.63,10.96-1.7,4.66-2.54,9.98-2.54,15.97s.86,11.34,2.59,16.06c1.72,4.72,4.27,8.43,7.63,11.14,3.36,2.71,7.54,4.06,12.54,4.06Z"/>
    <path class="cls-2" d="m1480.89,545.91c-6.15,0-11.66-1.11-16.55-3.32-4.88-2.21-8.73-5.48-11.55-9.8-2.82-4.32-4.22-9.64-4.22-15.97,0-5.41,1-9.9,3.02-13.47,2.01-3.57,4.75-6.42,8.23-8.55,3.48-2.13,7.4-3.75,11.76-4.88,4.37-1.12,8.88-1.91,13.53-2.37,5.69-.63,10.28-1.18,13.79-1.64,3.5-.46,6.05-1.21,7.63-2.24,1.58-1.04,2.37-2.65,2.37-4.83v-.43c0-4.66-1.38-8.29-4.14-10.88-2.76-2.59-6.78-3.88-12.07-3.88-5.57,0-9.98,1.21-13.23,3.63-3.25,2.42-5.44,5.27-6.59,8.55l-21.11-3.02c1.67-5.87,4.42-10.78,8.27-14.72,3.85-3.94,8.54-6.91,14.09-8.89,5.54-1.99,11.68-2.98,18.4-2.98,4.6,0,9.19.53,13.79,1.6,4.6,1.07,8.82,2.86,12.67,5.4,3.85,2.53,6.92,5.93,9.22,10.19,2.3,4.26,3.45,9.58,3.45,15.97v64.57h-21.8v-13.29h-.69c-1.38,2.65-3.32,5.14-5.82,7.47-2.5,2.33-5.6,4.22-9.31,5.65-3.71,1.44-8.09,2.16-13.14,2.16Zm5.77-16.75c4.6,0,8.56-.91,11.89-2.72,3.33-1.81,5.92-4.23,7.76-7.25,1.84-3.02,2.76-6.31,2.76-9.88v-11.31c-.75.58-1.95,1.11-3.62,1.6-1.67.49-3.56.94-5.69,1.34-2.13.4-4.21.75-6.25,1.04-2.04.29-3.81.52-5.3.69-3.39.46-6.42,1.22-9.09,2.29-2.67,1.07-4.78,2.52-6.33,4.36-1.55,1.84-2.33,4.23-2.33,7.17,0,4.2,1.52,7.37,4.57,9.5,3.04,2.13,6.92,3.19,11.63,3.19Z"/>
    <path class="cls-2" d="m1624.46,473.05l-20.6,2.16c-.86-3.16-2.73-5.97-5.6-8.42-2.87-2.45-6.92-3.67-12.15-3.67-4.71,0-8.66,1.04-11.85,3.11-3.19,2.07-4.78,4.72-4.78,7.94,0,2.82,1.05,5.14,3.15,6.95,2.1,1.81,5.59,3.27,10.47,4.36l16.46,3.45c9.02,1.9,15.77,5.01,20.25,9.32s6.72,9.9,6.72,16.75c0,6.04-1.75,11.39-5.26,16.06-3.5,4.66-8.35,8.29-14.52,10.88-6.18,2.59-13.29,3.88-21.33,3.88-11.78,0-21.24-2.49-28.4-7.47-7.15-4.98-11.45-11.9-12.88-20.76l22.15-2.07c.98,4.32,3.12,7.58,6.42,9.8,3.3,2.22,7.54,3.32,12.71,3.32s9.74-1.11,13.01-3.32c3.27-2.21,4.91-4.93,4.91-8.16,0-5.41-4.31-9.09-12.93-11.05l-16.46-3.45c-9.25-2.01-16.09-5.28-20.51-9.8-4.42-4.52-6.64-10.29-6.64-17.31,0-5.98,1.64-11.16,4.91-15.54,3.27-4.37,7.84-7.77,13.7-10.19,5.86-2.42,12.64-3.63,20.34-3.63,11.32,0,20.21,2.43,26.67,7.29,6.46,4.86,10.47,11.38,12.02,19.55Z"/>
  </g>
  <g>
    <path class="cls-3" d="m719.28,68.38c-46.79,0-84.72,37.93-84.72,84.72h141.91s27.53-84.72,27.53-84.72h-84.72Z"/>
    <path class="cls-3" d="m894.43,72.53c-14.46-44.5-62.25-68.85-106.75-54.39h0l43.85,134.97h89.08s-26.18-80.57-26.18-80.57Z"/>
    <path class="cls-3" d="m944.61,240.38c37.85-27.5,46.25-80.48,18.74-118.34h0l-114.81,83.41,27.53,84.72,68.54-49.8Z"/>
    <path class="cls-3" d="m800.47,339.98c37.85,27.5,90.84,19.11,118.34-18.74h0l-114.81-83.41-72.07,52.36,68.54,49.8Z"/>
    <path class="cls-3" d="m661.21,233.67c-14.46,44.5,9.89,92.29,54.39,106.75h0l43.85-134.97-72.07-52.36-26.18,80.57Z"/>
  </g>
  <g>
    <path class="cls-1" d="m797.9,666.67c-1.37-1.1-2.9-2.02-4.6-2.76-1.7-.73-3.47-1.32-5.31-1.76l-4.55-1.15c-1.33-.35-2.64-.79-3.92-1.31-1.28-.53-2.33-1.22-3.15-2.08-.82-.86-1.23-1.97-1.23-3.33,0-1.23.35-2.32,1.05-3.28.7-.96,1.71-1.72,3.03-2.26,1.32-.55,2.9-.82,4.73-.82,2.64,0,4.78.57,6.41,1.72,1.63,1.15,2.55,2.77,2.77,4.87h8.55c-.07-2.76-.84-5.2-2.33-7.32-1.49-2.12-3.54-3.79-6.16-4.99-2.62-1.2-5.67-1.81-9.14-1.81s-6.46.6-9.16,1.81c-2.7,1.2-4.82,2.88-6.37,5.04-1.55,2.16-2.33,4.68-2.33,7.57,0,3.52,1.16,6.34,3.47,8.45,2.32,2.11,5.48,3.68,9.5,4.71l5.54,1.44c1.77.44,3.31.94,4.62,1.51,1.31.57,2.34,1.26,3.08,2.08.74.82,1.11,1.87,1.11,3.13,0,1.4-.42,2.63-1.25,3.68-.83,1.05-1.98,1.87-3.44,2.46-1.46.59-3.16.89-5.08.89s-3.5-.28-5-.85c-1.5-.57-2.7-1.42-3.62-2.54-.92-1.13-1.44-2.54-1.57-4.25h-8.72c.13,3.24.98,5.99,2.56,8.25,1.57,2.26,3.76,3.99,6.55,5.17,2.8,1.18,6.09,1.77,9.9,1.77s7.21-.61,9.96-1.84c2.75-1.23,4.86-2.93,6.32-5.1,1.46-2.18,2.2-4.69,2.2-7.53,0-2.12-.4-3.97-1.2-5.55-.8-1.57-1.88-2.92-3.24-4.02Z"/>
    <polygon class="cls-1" points="839.76 653.27 829.67 653.27 816.53 668 815.9 668 815.9 641.05 807.28 641.05 807.28 689.96 815.9 689.96 815.9 677.66 819.04 674.29 830.26 689.96 840.58 689.96 825.56 669.13 839.76 653.27"/>
    <path class="cls-1" d="m868.87,657.24c-1.56-1.51-3.35-2.63-5.37-3.35-2.02-.72-4.16-1.08-6.41-1.08-3.5,0-6.53.8-9.11,2.4-2.58,1.6-4.58,3.82-6,6.68-1.42,2.86-2.13,6.18-2.13,9.96s.71,7.16,2.15,9.98c1.43,2.82,3.48,5.01,6.14,6.55,2.66,1.54,5.83,2.31,9.5,2.31,2.84,0,5.36-.43,7.55-1.3,2.2-.86,4-2.09,5.41-3.68,1.41-1.59,2.38-3.44,2.9-5.56l-8.06-.95c-.39,1.05-.96,1.93-1.69,2.64-.73.71-1.61,1.24-2.62,1.59-1.02.35-2.14.52-3.36.52-1.88,0-3.52-.42-4.93-1.25-1.41-.83-2.5-2.04-3.28-3.63-.7-1.43-1.08-3.12-1.15-5.07h25.48v-2.69c0-3.22-.45-5.99-1.34-8.32-.9-2.33-2.13-4.25-3.69-5.76Zm-16.47,3.61c1.31-.87,2.89-1.31,4.75-1.31s3.41.44,4.65,1.31c1.25.88,2.18,2.08,2.82,3.63.45,1.1.74,2.35.87,3.73h-17.04c.11-1.38.43-2.66.97-3.82.68-1.48,1.67-2.65,2.98-3.53Z"/>
    <path class="cls-1" d="m906,657.24c-1.56-1.51-3.35-2.63-5.37-3.35-2.02-.72-4.16-1.08-6.41-1.08-3.5,0-6.53.8-9.11,2.4-2.58,1.6-4.58,3.82-6,6.68-1.42,2.86-2.13,6.18-2.13,9.96s.72,7.16,2.15,9.98c1.43,2.82,3.48,5.01,6.14,6.55,2.67,1.54,5.83,2.31,9.5,2.31,2.84,0,5.36-.43,7.55-1.3,2.2-.86,4-2.09,5.41-3.68,1.41-1.59,2.38-3.44,2.9-5.56l-8.06-.95c-.39,1.05-.96,1.93-1.69,2.64-.73.71-1.61,1.24-2.62,1.59-1.02.35-2.14.52-3.36.52-1.88,0-3.52-.42-4.93-1.25-1.41-.83-2.5-2.04-3.28-3.63-.7-1.43-1.08-3.12-1.15-5.07h25.48v-2.69c0-3.22-.45-5.99-1.34-8.32-.9-2.33-2.13-4.25-3.69-5.76Zm-16.47,3.61c1.31-.87,2.89-1.31,4.75-1.31s3.41.44,4.65,1.31c1.25.88,2.18,2.08,2.82,3.63.45,1.1.74,2.35.87,3.73h-17.04c.11-1.38.43-2.66.97-3.82.68-1.48,1.67-2.65,2.98-3.53Z"/>
    <path class="cls-1" d="m942.78,654.97c-2.27-1.44-4.82-2.17-7.64-2.17-2.16,0-3.94.36-5.32,1.08-1.39.72-2.49,1.59-3.29,2.61-.81,1.02-1.43,1.96-1.87,2.84h-.52v-6.07h-8.45v50.42h8.62v-19.53h.36c.44.9,1.08,1.84,1.92,2.84.84,1,1.95,1.85,3.34,2.56,1.39.71,3.12,1.07,5.19,1.07,2.88,0,5.47-.74,7.75-2.22,2.28-1.48,4.08-3.63,5.39-6.45,1.31-2.82,1.97-6.25,1.97-10.27s-.67-7.54-2.02-10.34c-1.34-2.8-3.15-4.92-5.42-6.37Zm-2.36,22.78c-.66,1.79-1.62,3.21-2.9,4.23-1.28,1.03-2.87,1.54-4.77,1.54s-3.4-.5-4.69-1.49c-1.29-1-2.27-2.38-2.93-4.17-.67-1.78-1-3.86-1-6.22s.33-4.46,1-6.22c.67-1.76,1.64-3.12,2.92-4.09,1.28-.96,2.85-1.44,4.7-1.44s3.52.5,4.78,1.51c1.27,1.01,2.23,2.4,2.88,4.17.66,1.77.98,3.8.98,6.07s-.33,4.31-.98,6.11Z"/>
    <path class="cls-1" d="m982.45,657.24c-1.56-1.51-3.35-2.63-5.37-3.35-2.02-.72-4.16-1.08-6.41-1.08-3.5,0-6.53.8-9.11,2.4-2.58,1.6-4.58,3.82-6,6.68-1.42,2.86-2.13,6.18-2.13,9.96s.72,7.16,2.15,9.98c1.43,2.82,3.48,5.01,6.14,6.55,2.66,1.54,5.83,2.31,9.5,2.31,2.84,0,5.36-.43,7.55-1.3,2.2-.86,4-2.09,5.41-3.68,1.41-1.59,2.38-3.44,2.9-5.56l-8.06-.95c-.39,1.05-.96,1.93-1.69,2.64-.73.71-1.61,1.24-2.62,1.59-1.02.35-2.14.52-3.36.52-1.88,0-3.52-.42-4.93-1.25-1.41-.83-2.5-2.04-3.28-3.63-.7-1.43-1.08-3.12-1.15-5.07h25.48v-2.69c0-3.22-.45-5.99-1.34-8.32-.9-2.33-2.13-4.25-3.69-5.76Zm-16.47,3.61c1.31-.87,2.89-1.31,4.75-1.31s3.41.44,4.65,1.31c1.25.88,2.18,2.08,2.82,3.63.45,1.1.74,2.35.87,3.73h-17.04c.11-1.38.43-2.66.97-3.82.68-1.48,1.67-2.65,2.98-3.53Z"/>
    <path class="cls-1" d="m1009.92,652.77c-2.1,0-3.96.57-5.6,1.72-1.64,1.15-2.79,2.8-3.44,4.94h-.39v-6.17h-8.36v36.7h8.62v-21.53c0-1.58.35-2.95,1.06-4.14.71-1.18,1.69-2.11,2.93-2.79,1.25-.68,2.66-1.02,4.26-1.02.72,0,1.47.04,2.26.13.79.09,1.36.2,1.74.33v-7.94c-.39-.07-.89-.12-1.49-.16-.6-.04-1.13-.07-1.59-.07Z"/>
    <path class="cls-1" d="m1043.38,672.6c-1.7-1.64-4.27-2.82-7.7-3.54l-6.26-1.31c-1.86-.42-3.18-.97-3.98-1.66-.8-.69-1.2-1.57-1.2-2.64,0-1.23.61-2.23,1.82-3.02,1.21-.79,2.71-1.18,4.51-1.18,1.99,0,3.53.46,4.62,1.39,1.09.93,1.8,2,2.13,3.2l7.83-.82c-.59-3.11-2.11-5.59-4.57-7.43-2.46-1.85-5.84-2.77-10.14-2.77-2.93,0-5.51.46-7.73,1.38-2.23.92-3.96,2.21-5.21,3.87-1.25,1.66-1.87,3.63-1.87,5.91,0,2.67.84,4.86,2.52,6.58,1.68,1.72,4.28,2.96,7.8,3.73l6.26,1.31c3.28.74,4.91,2.14,4.91,4.2,0,1.23-.62,2.26-1.87,3.1-1.25.84-2.9,1.26-4.95,1.26s-3.58-.42-4.83-1.26c-1.26-.84-2.07-2.08-2.44-3.73l-8.42.79c.55,3.37,2.18,6,4.9,7.89,2.72,1.89,6.32,2.84,10.8,2.84,3.06,0,5.76-.49,8.11-1.48,2.35-.99,4.19-2.36,5.52-4.14,1.33-1.77,2-3.81,2-6.11,0-2.6-.85-4.73-2.56-6.37Z"/>
  </g>
  <g>
    <circle class="cls-3" cx="728.04" cy="640.14" r="12.71"/>
    <circle class="cls-3" cx="677.21" cy="690.97" r="12.71"/>
    <path class="cls-3" d="m715.33,627.43h-25.42c-14.04,0-25.42,11.38-25.42,25.42s11.38,25.42,25.42,25.42v-25.42h25.42v-25.42Z"/>
    <path class="cls-3" d="m715.33,652.85v25.42h-25.42v25.42h25.42s0,0,0,0c14.04,0,25.42-11.38,25.42-25.42s-11.38-25.42-25.42-25.42Z"/>
  </g>
  <path class="cls-1" d="m587.62,690.62c-2.08,0-3.81-.36-5.2-1.07-1.39-.71-2.51-1.56-3.35-2.56-.84-1-1.48-1.94-1.92-2.84h-.53v5.81h-8.47v-48.91h8.63v18.29h.36c.44-.88,1.06-1.82,1.87-2.84.81-1.02,1.91-1.89,3.3-2.61,1.39-.72,3.17-1.08,5.33-1.08,2.82,0,5.37.72,7.65,2.17,2.28,1.44,4.09,3.57,5.43,6.37,1.35,2.8,2.02,6.25,2.02,10.34s-.66,7.45-1.97,10.28c-1.31,2.82-3.11,4.97-5.4,6.45-2.29,1.48-4.87,2.22-7.76,2.22Zm-2.36-7.09c1.9,0,3.5-.51,4.78-1.54,1.28-1.03,2.25-2.44,2.91-4.23.66-1.79.98-3.83.98-6.11s-.33-4.3-.98-6.07c-.66-1.77-1.62-3.16-2.89-4.17-1.27-1.01-2.87-1.51-4.79-1.51s-3.43.48-4.71,1.44c-1.28.96-2.25,2.33-2.92,4.09-.67,1.76-1,3.84-1,6.22s.33,4.44,1,6.22c.67,1.78,1.65,3.17,2.94,4.17,1.29,1,2.86,1.49,4.69,1.49Z"/>
  <path class="cls-1" d="m611.69,703.68c-1.18.02-2.27-.06-3.27-.25-1-.19-1.8-.4-2.41-.64l2.04-6.73.43.13c1.75.46,3.24.49,4.48.1,1.24-.39,2.23-1.59,2.97-3.58l.72-1.97-13.26-37.49h9.16l8.44,27.74h.39l8.47-27.74h9.22l-14.71,41.13c-.68,1.95-1.58,3.62-2.69,5.01-1.12,1.39-2.49,2.45-4.14,3.18-1.64.73-3.59,1.1-5.84,1.1Z"/>
</svg>