<?xml version="1.0" encoding="UTF-8"?>
<svg id="Layer_1" data-name="Layer 1" xmlns="http://www.w3.org/2000/svg" viewBox="0 0 1273.72 727.41">
  <defs>
    <style>
      .cls-1 {
        fill: #111115;
      }

      .cls-1, .cls-2, .cls-3 {
        stroke-width: 0px;
      }

      .cls-2 {
        fill: #090912;
      }

      .cls-3 {
        fill: #0073ff;
      }
    </style>
  </defs>
  <g>
    <path class="cls-3" d="m524.28,75.48c-46.79,0-84.72,37.93-84.72,84.72h141.91s27.53-84.72,27.53-84.72h-84.72Z"/>
    <path class="cls-3" d="m699.43,79.63c-14.46-44.5-62.25-68.85-106.75-54.39h0l43.85,134.97h89.08s-26.18-80.57-26.18-80.57Z"/>
    <path class="cls-3" d="m749.61,247.48c37.85-27.5,46.25-80.48,18.74-118.34h0l-114.81,83.41,27.53,84.72,68.54-49.8Z"/>
    <path class="cls-3" d="m605.47,347.08c37.85,27.5,90.84,19.11,118.34-18.74h0l-114.81-83.41-72.07,52.36,68.54,49.8Z"/>
    <path class="cls-3" d="m466.21,240.77c-14.46,44.5,9.89,92.29,54.39,106.75h0l43.85-134.97-72.07-52.36-26.18,80.57Z"/>
  </g>
  <g>
    <g>
      <g>
        <path class="cls-1" d="m602.9,673.77c-1.37-1.1-2.9-2.02-4.6-2.76-1.7-.73-3.47-1.32-5.31-1.76l-4.55-1.15c-1.33-.35-2.64-.79-3.92-1.31-1.28-.53-2.33-1.22-3.15-2.08-.82-.86-1.23-1.97-1.23-3.33,0-1.23.35-2.32,1.05-3.28.7-.96,1.71-1.72,3.03-2.26,1.32-.55,2.9-.82,4.73-.82,2.64,0,4.78.57,6.41,1.72,1.63,1.15,2.55,2.77,2.77,4.87h8.55c-.07-2.76-.84-5.2-2.33-7.32-1.49-2.12-3.54-3.79-6.16-4.99-2.62-1.2-5.67-1.81-9.14-1.81s-6.46.6-9.16,1.81c-2.7,1.2-4.82,2.88-6.37,5.04-1.55,2.16-2.33,4.68-2.33,7.57,0,3.52,1.16,6.34,3.47,8.45,2.32,2.11,5.48,3.68,9.5,4.71l5.54,1.44c1.77.44,3.31.94,4.62,1.51,1.31.57,2.34,1.26,3.08,2.08.74.82,1.11,1.87,1.11,3.13,0,1.4-.42,2.63-1.25,3.68-.83,1.05-1.98,1.87-3.44,2.46-1.46.59-3.16.89-5.08.89s-3.5-.28-5-.85c-1.5-.57-2.7-1.42-3.62-2.54-.92-1.13-1.44-2.54-1.57-4.25h-8.72c.13,3.24.98,5.99,2.56,8.25,1.57,2.26,3.76,3.99,6.55,5.17,2.8,1.18,6.09,1.77,9.9,1.77s7.21-.61,9.96-1.84c2.75-1.23,4.86-2.93,6.32-5.1,1.46-2.18,2.2-4.69,2.2-7.53,0-2.12-.4-3.97-1.2-5.55-.8-1.57-1.88-2.92-3.24-4.02Z"/>
        <polygon class="cls-1" points="644.76 660.37 634.67 660.37 621.53 675.1 620.9 675.1 620.9 648.16 612.29 648.16 612.29 697.06 620.9 697.06 620.9 684.76 624.04 681.39 635.26 697.06 645.58 697.06 630.56 676.23 644.76 660.37"/>
        <path class="cls-1" d="m673.87,664.34c-1.56-1.51-3.35-2.63-5.37-3.35-2.02-.72-4.16-1.08-6.41-1.08-3.5,0-6.53.8-9.11,2.4-2.58,1.6-4.58,3.82-6,6.68-1.42,2.86-2.13,6.18-2.13,9.96s.71,7.16,2.15,9.98c1.43,2.82,3.48,5.01,6.14,6.55,2.66,1.54,5.83,2.31,9.5,2.31,2.84,0,5.36-.43,7.55-1.3,2.2-.86,4-2.09,5.41-3.68,1.41-1.59,2.38-3.44,2.9-5.56l-8.06-.95c-.39,1.05-.96,1.93-1.69,2.64-.73.71-1.61,1.24-2.62,1.59-1.02.35-2.14.52-3.36.52-1.88,0-3.52-.42-4.93-1.25-1.41-.83-2.5-2.04-3.28-3.63-.7-1.43-1.08-3.12-1.15-5.07h25.48v-2.69c0-3.22-.45-5.99-1.34-8.32-.9-2.33-2.13-4.25-3.69-5.76Zm-16.47,3.61c1.31-.87,2.89-1.31,4.75-1.31s3.41.44,4.65,1.31c1.25.88,2.18,2.08,2.82,3.63.45,1.1.74,2.35.87,3.73h-17.04c.11-1.38.43-2.66.97-3.82.68-1.48,1.67-2.65,2.98-3.53Z"/>
        <path class="cls-1" d="m711,664.34c-1.56-1.51-3.35-2.63-5.37-3.35-2.02-.72-4.16-1.08-6.41-1.08-3.5,0-6.53.8-9.11,2.4-2.58,1.6-4.58,3.82-6,6.68-1.42,2.86-2.13,6.18-2.13,9.96s.72,7.16,2.15,9.98c1.43,2.82,3.48,5.01,6.14,6.55,2.67,1.54,5.83,2.31,9.5,2.31,2.84,0,5.36-.43,7.55-1.3,2.2-.86,4-2.09,5.41-3.68,1.41-1.59,2.38-3.44,2.9-5.56l-8.06-.95c-.39,1.05-.96,1.93-1.69,2.64-.73.71-1.61,1.24-2.62,1.59-1.02.35-2.14.52-3.36.52-1.88,0-3.52-.42-4.93-1.25-1.41-.83-2.5-2.04-3.28-3.63-.7-1.43-1.08-3.12-1.15-5.07h25.48v-2.69c0-3.22-.45-5.99-1.34-8.32-.9-2.33-2.13-4.25-3.69-5.76Zm-16.47,3.61c1.31-.87,2.89-1.31,4.75-1.31s3.41.44,4.65,1.31c1.25.88,2.18,2.08,2.82,3.63.45,1.1.74,2.35.87,3.73h-17.04c.11-1.38.43-2.66.97-3.82.68-1.48,1.67-2.65,2.98-3.53Z"/>
        <path class="cls-1" d="m747.78,662.07c-2.27-1.44-4.82-2.17-7.64-2.17-2.16,0-3.94.36-5.32,1.08-1.39.72-2.49,1.59-3.29,2.61-.81,1.02-1.43,1.96-1.87,2.84h-.52v-6.07h-8.45v50.42h8.62v-19.53h.36c.44.9,1.08,1.84,1.92,2.84.84,1,1.95,1.85,3.34,2.56,1.39.71,3.12,1.07,5.19,1.07,2.88,0,5.47-.74,7.75-2.22,2.28-1.48,4.08-3.63,5.39-6.45,1.31-2.82,1.97-6.25,1.97-10.27s-.67-7.54-2.02-10.34c-1.34-2.8-3.15-4.92-5.42-6.37Zm-2.36,22.78c-.66,1.79-1.62,3.21-2.9,4.23-1.28,1.03-2.87,1.54-4.77,1.54s-3.4-.5-4.69-1.49c-1.29-1-2.27-2.38-2.93-4.17-.67-1.78-1-3.86-1-6.22s.33-4.46,1-6.22c.67-1.76,1.64-3.12,2.92-4.09,1.28-.96,2.85-1.44,4.7-1.44s3.52.5,4.78,1.51c1.27,1.01,2.23,2.4,2.88,4.17.66,1.77.98,3.8.98,6.07s-.33,4.31-.98,6.11Z"/>
        <path class="cls-1" d="m787.45,664.34c-1.56-1.51-3.35-2.63-5.37-3.35-2.02-.72-4.16-1.08-6.41-1.08-3.5,0-6.53.8-9.11,2.4-2.58,1.6-4.58,3.82-6,6.68-1.42,2.86-2.13,6.18-2.13,9.96s.72,7.16,2.15,9.98c1.43,2.82,3.48,5.01,6.14,6.55,2.66,1.54,5.83,2.31,9.5,2.31,2.84,0,5.36-.43,7.55-1.3,2.2-.86,4-2.09,5.41-3.68,1.41-1.59,2.38-3.44,2.9-5.56l-8.06-.95c-.39,1.05-.96,1.93-1.69,2.64-.73.71-1.61,1.24-2.62,1.59-1.02.35-2.14.52-3.36.52-1.88,0-3.52-.42-4.93-1.25-1.41-.83-2.5-2.04-3.28-3.63-.7-1.43-1.08-3.12-1.15-5.07h25.48v-2.69c0-3.22-.45-5.99-1.34-8.32-.9-2.33-2.13-4.25-3.69-5.76Zm-16.47,3.61c1.31-.87,2.89-1.31,4.75-1.31s3.41.44,4.65,1.31c1.25.88,2.18,2.08,2.82,3.63.45,1.1.74,2.35.87,3.73h-17.04c.11-1.38.43-2.66.97-3.82.68-1.48,1.67-2.65,2.98-3.53Z"/>
        <path class="cls-1" d="m814.93,659.87c-2.1,0-3.96.57-5.6,1.72-1.64,1.15-2.79,2.8-3.44,4.94h-.39v-6.17h-8.36v36.7h8.62v-21.53c0-1.58.35-2.95,1.06-4.14.71-1.18,1.69-2.11,2.93-2.79,1.25-.68,2.66-1.02,4.26-1.02.72,0,1.47.04,2.26.13.79.09,1.36.2,1.74.33v-7.94c-.39-.07-.89-.12-1.49-.16-.6-.04-1.13-.07-1.59-.07Z"/>
        <path class="cls-1" d="m848.38,679.7c-1.7-1.64-4.27-2.82-7.7-3.54l-6.26-1.31c-1.86-.42-3.18-.97-3.98-1.66-.8-.69-1.2-1.57-1.2-2.64,0-1.23.61-2.23,1.82-3.02,1.21-.79,2.71-1.18,4.51-1.18,1.99,0,3.53.46,4.62,1.39,1.09.93,1.8,2,2.13,3.2l7.83-.82c-.59-3.11-2.11-5.59-4.57-7.43-2.46-1.85-5.84-2.77-10.14-2.77-2.93,0-5.51.46-7.73,1.38-2.23.92-3.96,2.21-5.21,3.87-1.25,1.66-1.87,3.63-1.87,5.91,0,2.67.84,4.86,2.52,6.58,1.68,1.72,4.28,2.96,7.8,3.73l6.26,1.31c3.28.74,4.91,2.14,4.91,4.2,0,1.23-.62,2.26-1.87,3.1-1.25.84-2.9,1.26-4.95,1.26s-3.58-.42-4.83-1.26c-1.26-.84-2.07-2.08-2.44-3.73l-8.42.79c.55,3.37,2.18,6,4.9,7.89,2.72,1.89,6.32,2.84,10.8,2.84,3.06,0,5.76-.49,8.11-1.48,2.35-.99,4.19-2.36,5.52-4.14,1.33-1.77,2-3.81,2-6.11,0-2.6-.85-4.73-2.56-6.37Z"/>
      </g>
      <g>
        <circle class="cls-3" cx="533.04" cy="647.24" r="12.71"/>
        <circle class="cls-3" cx="482.21" cy="698.07" r="12.71"/>
        <path class="cls-3" d="m520.34,634.53h-25.42c-14.04,0-25.42,11.38-25.42,25.42s11.38,25.42,25.42,25.42v-25.42h25.42v-25.42Z"/>
        <path class="cls-3" d="m520.34,659.95v25.42h-25.42v25.42h25.42s0,0,0,0c14.04,0,25.42-11.38,25.42-25.42s-11.38-25.42-25.42-25.42Z"/>
      </g>
    </g>
    <g>
      <path class="cls-1" d="m392.63,697.72c-2.08,0-3.81-.36-5.2-1.07-1.39-.71-2.51-1.56-3.35-2.56-.84-1-1.48-1.94-1.92-2.84h-.53v5.81h-8.47v-48.91h8.63v18.29h.36c.44-.88,1.06-1.82,1.87-2.84.81-1.02,1.91-1.89,3.3-2.61,1.39-.72,3.17-1.08,5.33-1.08,2.82,0,5.37.72,7.65,2.17,2.28,1.44,4.09,3.57,5.43,6.37,1.35,2.8,2.02,6.25,2.02,10.34s-.66,7.45-1.97,10.28c-1.31,2.82-3.11,4.97-5.4,6.45-2.29,1.48-4.87,2.22-7.76,2.22Zm-2.36-7.09c1.9,0,3.5-.51,4.78-1.54,1.28-1.03,2.25-2.44,2.91-4.23.66-1.79.98-3.83.98-6.11s-.33-4.3-.98-6.07c-.66-1.77-1.62-3.16-2.89-4.17-1.27-1.01-2.87-1.51-4.79-1.51s-3.43.48-4.71,1.44c-1.28.96-2.25,2.33-2.92,4.09-.67,1.76-1,3.84-1,6.22s.33,4.44,1,6.22c.67,1.78,1.65,3.17,2.94,4.17,1.29,1,2.86,1.49,4.69,1.49Z"/>
      <path class="cls-1" d="m416.69,710.78c-1.18.02-2.27-.06-3.27-.25-1-.19-1.8-.4-2.41-.64l2.04-6.73.43.13c1.75.46,3.24.49,4.48.1,1.24-.39,2.23-1.59,2.97-3.58l.72-1.97-13.26-37.49h9.16l8.44,27.74h.39l8.47-27.74h9.22l-14.71,41.13c-.68,1.95-1.58,3.62-2.69,5.01-1.12,1.39-2.49,2.45-4.14,3.18-1.64.73-3.59,1.1-5.84,1.1Z"/>
    </g>
  </g>
  <g>
    <polygon class="cls-2" points="94.59 423 60.91 525.16 59.52 525.16 25.85 423 0 423 45.77 552.88 74.66 552.88 120.35 423 94.59 423"/>
    <path class="cls-2" d="m188.71,465.98c-4.15-4.01-8.91-6.97-14.27-8.89-5.37-1.92-11.04-2.88-17.01-2.88-9.28,0-17.35,2.12-24.19,6.36-6.85,4.24-12.15,10.15-15.92,17.74-3.77,7.58-5.66,16.4-5.66,26.46s1.9,19,5.7,26.5c3.8,7.5,9.24,13.29,16.32,17.39,7.08,4.1,15.49,6.15,25.24,6.15,7.54,0,14.23-1.15,20.06-3.44,5.83-2.29,10.62-5.55,14.36-9.76,3.74-4.21,6.31-9.14,7.7-14.77l-21.41-2.53c-1.04,2.79-2.54,5.13-4.48,7.02-1.94,1.89-4.26,3.3-6.96,4.23-2.7.93-5.67,1.39-8.92,1.39-4.99,0-9.35-1.1-13.1-3.31-3.74-2.21-6.64-5.42-8.7-9.63-1.85-3.79-2.87-8.29-3.05-13.47h67.66v-7.15c0-8.54-1.19-15.91-3.57-22.1-2.38-6.19-5.64-11.29-9.79-15.3Zm-43.73,9.59c3.48-2.32,7.69-3.49,12.62-3.49s9.05,1.16,12.36,3.49c3.31,2.33,5.8,5.54,7.48,9.63,1.2,2.93,1.97,6.23,2.31,9.89h-45.26c.3-3.67,1.15-7.05,2.57-10.16,1.8-3.92,4.44-7.04,7.92-9.37Z"/>
    <path class="cls-2" d="m258.11,454.12c-5.57,0-10.53,1.53-14.88,4.58-4.35,3.05-7.4,7.42-9.14,13.12h-1.04v-16.39h-22.19v97.45h22.89v-57.18c0-4.18.94-7.84,2.83-10.98,1.88-3.14,4.48-5.61,7.79-7.41,3.31-1.8,7.08-2.7,11.31-2.7,1.92,0,3.92.12,6,.35,2.09.23,3.62.52,4.61.87v-21.09c-1.04-.17-2.37-.32-3.96-.44-1.6-.12-3-.17-4.22-.17Z"/>
    <rect class="cls-2" x="271.34" y="455.43" width="22.89" height="97.45"/>
    <path class="cls-2" d="m282.83,416.73c-3.66,0-6.79,1.22-9.4,3.66-2.61,2.44-3.92,5.4-3.92,8.89s1.31,6.36,3.92,8.8,5.74,3.66,9.4,3.66,6.7-1.22,9.31-3.66c2.61-2.44,3.92-5.4,3.92-8.89s-1.3-6.36-3.92-8.8c-2.61-2.44-5.71-3.66-9.31-3.66Z"/>
    <path class="cls-2" d="m344.26,416.9c-5.57,0-10.66,1.08-15.27,3.23-4.61,2.15-8.28,5.4-11.01,9.76-2.73,4.36-4.09,9.82-4.09,16.39v9.15h-14.27v17.78h14.27v79.67h22.8v-79.67h20.28v-17.78h-20.28v-7.5c0-3.83.91-6.8,2.74-8.89,1.83-2.09,4.86-3.14,9.09-3.14,1.86,0,3.51.16,4.96.48,1.45.32,2.64.65,3.57,1l4.7-17.78c-1.45-.52-3.73-1.1-6.83-1.74-3.1-.64-6.66-.96-10.66-.96Z"/>
    <path class="cls-2" d="m376.29,416.73c-3.66,0-6.79,1.22-9.4,3.66-2.61,2.44-3.92,5.4-3.92,8.89s1.31,6.36,3.92,8.8,5.74,3.66,9.4,3.66,6.7-1.22,9.31-3.66c2.61-2.44,3.92-5.4,3.92-8.89s-1.3-6.36-3.92-8.8c-2.61-2.44-5.71-3.66-9.31-3.66Z"/>
    <rect class="cls-2" x="364.81" y="455.43" width="22.89" height="97.45"/>
    <path class="cls-2" d="m473.89,465.98c-4.15-4.01-8.91-6.97-14.27-8.89-5.37-1.92-11.04-2.88-17.01-2.88-9.28,0-17.35,2.12-24.19,6.36-6.85,4.24-12.15,10.15-15.92,17.74-3.77,7.58-5.66,16.4-5.66,26.46s1.9,19,5.7,26.5c3.8,7.5,9.24,13.29,16.32,17.39,7.08,4.1,15.49,6.15,25.24,6.15,7.54,0,14.23-1.15,20.06-3.44,5.83-2.29,10.62-5.55,14.36-9.76,3.74-4.21,6.31-9.14,7.7-14.77l-21.41-2.53c-1.04,2.79-2.54,5.13-4.48,7.02-1.94,1.89-4.26,3.3-6.96,4.23-2.7.93-5.67,1.39-8.92,1.39-4.99,0-9.36-1.1-13.1-3.31-3.74-2.21-6.64-5.42-8.7-9.63-1.85-3.79-2.87-8.29-3.05-13.47h67.66v-7.15c0-8.54-1.19-15.91-3.57-22.1-2.38-6.19-5.64-11.29-9.79-15.3Zm-43.73,9.59c3.48-2.32,7.69-3.49,12.62-3.49s9.05,1.16,12.36,3.49c3.31,2.33,5.8,5.54,7.48,9.63,1.2,2.93,1.97,6.23,2.31,9.89h-45.26c.3-3.67,1.15-7.05,2.57-10.16,1.8-3.92,4.44-7.04,7.92-9.37Z"/>
    <path class="cls-2" d="m560.69,471.55h-.96c-1.16-2.32-2.83-4.84-5-7.54s-5.09-5.01-8.75-6.93c-3.66-1.92-8.35-2.88-14.1-2.88-7.48,0-14.24,1.92-20.28,5.75-6.03,3.83-10.83,9.47-14.4,16.91-3.57,7.44-5.35,16.59-5.35,27.46s1.74,19.79,5.22,27.28c3.48,7.5,8.25,13.21,14.31,17.13,6.06,3.92,12.89,5.88,20.49,5.88,5.63,0,10.27-.95,13.92-2.83,3.65-1.89,6.58-4.15,8.79-6.8,2.2-2.64,3.92-5.16,5.13-7.54h1.39v15.43h22.36v-129.88h-22.8v48.55Zm-2.26,49.21c-1.8,4.74-4.39,8.43-7.79,11.07-3.39,2.65-7.53,3.97-12.4,3.97s-9.27-1.37-12.66-4.1c-3.39-2.73-5.96-6.48-7.7-11.24-1.74-4.76-2.61-10.17-2.61-16.21s.86-11.42,2.57-16.13c1.71-4.71,4.28-8.4,7.7-11.07,3.42-2.67,7.66-4.01,12.71-4.01s9.09,1.28,12.49,3.83c3.39,2.56,5.97,6.17,7.75,10.85,1.77,4.68,2.65,10.18,2.65,16.52s-.9,11.78-2.7,16.52Z"/>
    <path class="cls-2" d="m705.41,500.32c6.84-3.31,12.02-8.02,15.53-14.12,3.51-6.1,5.26-13.31,5.26-21.62s-1.74-15.5-5.22-21.75c-3.48-6.25-8.6-11.11-15.36-14.6-6.76-3.49-15.13-5.23-25.11-5.23h-48.64v129.88h23.5v-47.59h23.97l25.37,47.59h26.28l-28.05-51.47c.84-.34,1.67-.7,2.47-1.09Zm-50.04-57.62h21.49c5.92,0,10.73.86,14.45,2.57,3.71,1.71,6.47,4.21,8.27,7.5,1.8,3.28,2.7,7.22,2.7,11.81s-.88,8.47-2.65,11.64c-1.77,3.17-4.53,5.56-8.27,7.19-3.74,1.63-8.54,2.44-14.4,2.44h-21.58v-43.15Z"/>
    <path class="cls-2" d="m808.15,465.98c-4.15-4.01-8.91-6.97-14.27-8.89-5.37-1.92-11.04-2.88-17.01-2.88-9.28,0-17.35,2.12-24.19,6.36-6.85,4.24-12.15,10.15-15.92,17.74-3.77,7.58-5.66,16.4-5.66,26.46s1.9,19,5.7,26.5c3.8,7.5,9.24,13.29,16.32,17.39,7.08,4.1,15.49,6.15,25.24,6.15,7.54,0,14.23-1.15,20.06-3.44,5.83-2.29,10.62-5.55,14.36-9.76,3.74-4.21,6.31-9.14,7.7-14.77l-21.41-2.53c-1.04,2.79-2.54,5.13-4.48,7.02-1.94,1.89-4.26,3.3-6.96,4.23-2.7.93-5.67,1.39-8.92,1.39-4.99,0-9.36-1.1-13.1-3.31-3.74-2.21-6.64-5.42-8.7-9.63-1.85-3.79-2.87-8.29-3.05-13.47h67.66v-7.15c0-8.54-1.19-15.91-3.57-22.1-2.38-6.19-5.64-11.29-9.79-15.3Zm-43.73,9.59c3.48-2.32,7.69-3.49,12.62-3.49s9.05,1.16,12.36,3.49c3.31,2.33,5.8,5.54,7.48,9.63,1.2,2.93,1.97,6.23,2.31,9.89h-45.26c.3-3.67,1.15-7.05,2.57-10.16,1.8-3.92,4.44-7.04,7.92-9.37Z"/>
    <polygon class="cls-2" points="867.28 527.86 866.23 527.86 843.7 455.43 819.24 455.43 853.79 552.88 879.2 552.88 913.83 455.43 889.64 455.43 867.28 527.86"/>
    <path class="cls-2" d="m930.89,416.73c-3.66,0-6.79,1.22-9.4,3.66-2.61,2.44-3.92,5.4-3.92,8.89s1.31,6.36,3.92,8.8,5.74,3.66,9.4,3.66,6.7-1.22,9.31-3.66c2.61-2.44,3.92-5.4,3.92-8.89s-1.3-6.36-3.92-8.8c-2.61-2.44-5.71-3.66-9.31-3.66Z"/>
    <rect class="cls-2" x="919.41" y="455.43" width="22.89" height="97.45"/>
    <path class="cls-2" d="m1028.49,465.98c-4.15-4.01-8.91-6.97-14.27-8.89-5.37-1.92-11.04-2.88-17.01-2.88-9.28,0-17.35,2.12-24.19,6.36-6.85,4.24-12.15,10.15-15.92,17.74-3.77,7.58-5.66,16.4-5.66,26.46s1.9,19,5.7,26.5c3.8,7.5,9.24,13.29,16.32,17.39,7.08,4.1,15.49,6.15,25.24,6.15,7.54,0,14.23-1.15,20.06-3.44,5.83-2.29,10.62-5.55,14.36-9.76,3.74-4.21,6.31-9.14,7.7-14.77l-21.41-2.53c-1.04,2.79-2.54,5.13-4.48,7.02-1.94,1.89-4.26,3.3-6.96,4.23-2.7.93-5.67,1.39-8.92,1.39-4.99,0-9.36-1.1-13.1-3.31-3.74-2.21-6.64-5.42-8.7-9.63-1.85-3.79-2.87-8.29-3.05-13.47h67.66v-7.15c0-8.54-1.19-15.91-3.57-22.1-2.38-6.19-5.64-11.29-9.79-15.3Zm-43.73,9.59c3.48-2.32,7.69-3.49,12.62-3.49s9.05,1.16,12.36,3.49c3.31,2.33,5.8,5.54,7.48,9.63,1.2,2.93,1.97,6.23,2.31,9.89h-45.26c.3-3.67,1.15-7.05,2.57-10.16,1.8-3.92,4.44-7.04,7.92-9.37Z"/>
    <polygon class="cls-2" points="1140.88 523.68 1140.01 523.68 1122.52 455.43 1099.46 455.43 1081.97 523.94 1081.1 523.94 1063.95 455.43 1040.63 455.43 1068.13 552.88 1091.97 552.88 1110.25 487.07 1111.47 487.07 1129.74 552.88 1153.67 552.88 1181.17 455.43 1157.76 455.43 1140.88 523.68"/>
    <path class="cls-2" d="m1259.06,506.77c-4.52-4.36-11.34-7.5-20.45-9.41l-16.62-3.49c-4.93-1.1-8.46-2.57-10.57-4.4-2.12-1.83-3.18-4.17-3.18-7.02,0-3.25,1.61-5.93,4.83-8.02s7.21-3.14,11.97-3.14c5.28,0,9.37,1.24,12.27,3.71,2.9,2.47,4.79,5.3,5.66,8.5l20.8-2.18c-1.57-8.25-5.61-14.83-12.14-19.74-6.53-4.91-15.5-7.37-26.93-7.37-7.77,0-14.62,1.22-20.54,3.66-5.92,2.44-10.53,5.87-13.84,10.29-3.31,4.42-4.96,9.65-4.96,15.69,0,7.09,2.23,12.92,6.7,17.48,4.47,4.56,11.37,7.86,20.71,9.89l16.62,3.49c8.7,1.98,13.05,5.7,13.05,11.16,0,3.25-1.65,6-4.96,8.24-3.31,2.24-7.69,3.36-13.14,3.36s-9.5-1.12-12.83-3.36c-3.34-2.24-5.5-5.54-6.48-9.89l-22.36,2.09c1.45,8.95,5.79,15.94,13.01,20.96,7.22,5.03,16.78,7.54,28.67,7.54,8.12,0,15.3-1.31,21.54-3.92,6.24-2.61,11.12-6.28,14.66-10.98,3.54-4.71,5.31-10.11,5.31-16.21,0-6.92-2.26-12.55-6.79-16.91Z"/>
  </g>
</svg>