<?xml version="1.0" encoding="UTF-8"?>
<svg id="Layer_1" data-name="Layer 1" xmlns="http://www.w3.org/2000/svg" viewBox="0 0 1630.65 723.2">
  <defs>
    <style>
      .cls-1 {
        fill: #111115;
      }

      .cls-1, .cls-2, .cls-3 {
        stroke-width: 0px;
      }

      .cls-2 {
        fill: #090912;
      }

      .cls-3 {
        fill: #0073ff;
      }
    </style>
  </defs>
  <g>
    <polygon class="cls-2" points="70.34 489.91 126.73 489.91 126.73 470.47 70.34 470.47 70.34 435.6 131.25 435.6 131.25 415.9 46.84 415.9 46.84 545.78 131.6 545.78 131.6 526.08 70.34 526.08 70.34 489.91"/>
    <path class="cls-2" d="m174.11,469.38c3.51-2.53,7.61-3.79,12.31-3.79,3.71,0,6.92.73,9.62,2.18,2.7,1.45,4.89,3.43,6.57,5.93,1.68,2.5,2.81,5.32,3.39,8.46h21.93c-.52-7.03-2.6-13.18-6.22-18.44-3.63-5.26-8.48-9.34-14.58-12.25-6.09-2.91-13.11-4.36-21.06-4.36-9.46,0-17.67,2.14-24.63,6.41-6.96,4.27-12.33,10.19-16.1,17.74-3.77,7.56-5.66,16.3-5.66,26.24s1.86,18.51,5.57,26.06c3.71,7.56,9.05,13.47,16.01,17.74,6.96,4.27,15.29,6.41,24.98,6.41,8.12,0,15.2-1.5,21.23-4.49,6.03-2.99,10.82-7.13,14.36-12.42,3.54-5.29,5.57-11.39,6.09-18.3h-21.93c-.99,5.23-3.23,9.33-6.74,12.29-3.51,2.96-7.79,4.45-12.84,4.45-4.76,0-8.91-1.29-12.44-3.88-3.54-2.58-6.27-6.28-8.18-11.07-1.91-4.79-2.87-10.5-2.87-17.13s.99-12.2,2.96-16.91c1.97-4.71,4.71-8.32,8.22-10.85Z"/>
    <path class="cls-2" d="m306.82,451.38c-5.02-2.85-10.89-4.27-17.62-4.27-7.48,0-13.61,1.6-18.36,4.79-4.76,3.2-8.27,7.55-10.53,13.07h-1.22v-49.07h-22.36v129.88h22.89v-57.01c0-4.76.9-8.79,2.7-12.07,1.8-3.28,4.28-5.8,7.44-7.54,3.16-1.74,6.77-2.62,10.83-2.62,6.03,0,10.73,1.82,14.1,5.45,3.36,3.63,5.05,8.76,5.05,15.38v58.4h22.97v-61.98c0-7.85-1.39-14.5-4.18-19.96-2.78-5.46-6.69-9.62-11.7-12.46Z"/>
    <path class="cls-2" d="m379.09,527.47c-1.22.17-2.32.26-3.31.26-3.66,0-6.32-.92-8.01-2.75-1.68-1.83-2.52-4.66-2.52-8.5v-50.38h19.23v-17.78h-19.23v-23.19h-22.89v23.19h-13.66v17.78h13.66v54.13c0,8.31,2.58,14.86,7.75,19.66,5.16,4.79,12.27,7.19,21.32,7.19,2.49,0,4.99-.19,7.48-.57,2.49-.38,4.96-.94,7.4-1.7l-3.92-17.96c-.99.23-2.09.44-3.31.61Z"/>
    <path class="cls-2" d="m465.47,458.87c-4.15-4.01-8.91-6.97-14.27-8.89-5.37-1.92-11.04-2.88-17.01-2.88-9.28,0-17.35,2.12-24.19,6.36-6.85,4.24-12.15,10.15-15.92,17.74-3.77,7.58-5.66,16.4-5.66,26.46s1.9,19,5.7,26.5c3.8,7.5,9.24,13.29,16.32,17.39,7.08,4.1,15.49,6.15,25.24,6.15,7.54,0,14.23-1.15,20.06-3.44,5.83-2.29,10.62-5.55,14.36-9.76,3.74-4.21,6.31-9.14,7.7-14.77l-21.41-2.53c-1.04,2.79-2.54,5.13-4.48,7.02-1.94,1.89-4.26,3.3-6.96,4.23-2.7.93-5.67,1.39-8.92,1.39-4.99,0-9.36-1.1-13.1-3.31-3.74-2.21-6.64-5.42-8.7-9.63-1.85-3.79-2.87-8.29-3.05-13.47h67.66v-7.15c0-8.54-1.19-15.91-3.57-22.1-2.38-6.19-5.64-11.29-9.79-15.3Zm-43.73,9.59c3.48-2.32,7.69-3.49,12.62-3.49s9.05,1.16,12.36,3.49c3.31,2.32,5.8,5.54,7.48,9.63,1.2,2.93,1.97,6.23,2.31,9.89h-45.26c.3-3.66,1.15-7.05,2.57-10.15,1.8-3.92,4.44-7.05,7.92-9.37Z"/>
    <path class="cls-2" d="m604.88,482.71c-4.21-2.58-8.63-3.97-13.27-4.14v-1.31c4.23-1.05,8.06-2.73,11.49-5.06,3.42-2.32,6.13-5.36,8.14-9.11,2-3.75,3-8.27,3-13.55,0-6.39-1.54-12.13-4.61-17.22-3.08-5.08-7.72-9.09-13.92-12.03-6.21-2.93-13.98-4.4-23.32-4.4h-49.78v129.88h52.56c9.92,0,18.14-1.55,24.67-4.66,6.53-3.11,11.4-7.32,14.62-12.64,3.22-5.32,4.83-11.35,4.83-18.09s-1.35-12.17-4.05-16.82c-2.7-4.65-6.15-8.27-10.36-10.85Zm-58.78-47.38h23.84c6.84,0,12.04,1.64,15.58,4.93,3.54,3.28,5.31,7.42,5.31,12.42,0,3.78-.94,7.05-2.83,9.81-1.89,2.76-4.45,4.9-7.7,6.41-3.25,1.51-6.88,2.27-10.88,2.27h-23.32v-35.83Zm43.73,85.86c-3.8,3.31-9.96,4.97-18.49,4.97h-25.24v-38.09h26.02c4.76,0,8.89.9,12.4,2.7,3.51,1.8,6.22,4.24,8.14,7.32,1.91,3.08,2.87,6.57,2.87,10.46,0,5.11-1.9,9.33-5.7,12.64Z"/>
    <path class="cls-2" d="m701.47,458.87c-4.15-4.01-8.91-6.97-14.27-8.89-5.37-1.92-11.04-2.88-17.01-2.88-9.28,0-17.35,2.12-24.19,6.36-6.85,4.24-12.15,10.15-15.92,17.74-3.77,7.58-5.66,16.4-5.66,26.46s1.9,19,5.7,26.5c3.8,7.5,9.24,13.29,16.32,17.39,7.08,4.1,15.49,6.15,25.24,6.15,7.54,0,14.23-1.15,20.06-3.44,5.83-2.29,10.62-5.55,14.36-9.76,3.74-4.21,6.31-9.14,7.7-14.77l-21.41-2.53c-1.04,2.79-2.54,5.13-4.48,7.02-1.94,1.89-4.26,3.3-6.96,4.23-2.7.93-5.67,1.39-8.92,1.39-4.99,0-9.36-1.1-13.1-3.31-3.74-2.21-6.64-5.42-8.7-9.63-1.85-3.79-2.87-8.29-3.05-13.47h67.66v-7.15c0-8.54-1.19-15.91-3.57-22.1-2.38-6.19-5.64-11.29-9.79-15.3Zm-43.73,9.59c3.48-2.32,7.69-3.49,12.62-3.49s9.05,1.16,12.36,3.49c3.31,2.32,5.8,5.54,7.48,9.63,1.2,2.93,1.97,6.23,2.31,9.89h-45.26c.3-3.66,1.15-7.05,2.57-10.15,1.8-3.92,4.44-7.05,7.92-9.37Z"/>
    <polygon class="cls-2" points="830.74 448.33 813.86 516.58 812.99 516.58 795.5 448.33 772.44 448.33 754.95 516.84 754.08 516.84 736.94 448.33 713.62 448.33 741.11 545.78 764.96 545.78 783.23 479.97 784.45 479.97 802.72 545.78 826.65 545.78 854.15 448.33 830.74 448.33"/>
    <path class="cls-2" d="m930.26,458.87c-4.15-4.01-8.91-6.97-14.27-8.89-5.37-1.92-11.04-2.88-17.01-2.88-9.28,0-17.35,2.12-24.19,6.36-6.85,4.24-12.15,10.15-15.92,17.74-3.77,7.58-5.66,16.4-5.66,26.46s1.9,19,5.7,26.5c3.8,7.5,9.24,13.29,16.32,17.39,7.08,4.1,15.49,6.15,25.24,6.15,7.54,0,14.23-1.15,20.06-3.44,5.83-2.29,10.62-5.55,14.36-9.76,3.74-4.21,6.31-9.14,7.7-14.77l-21.41-2.53c-1.04,2.79-2.54,5.13-4.48,7.02-1.94,1.89-4.26,3.3-6.96,4.23-2.7.93-5.67,1.39-8.92,1.39-4.99,0-9.36-1.1-13.1-3.31-3.74-2.21-6.64-5.42-8.7-9.63-1.85-3.79-2.87-8.29-3.05-13.47h67.66v-7.15c0-8.54-1.19-15.91-3.57-22.1-2.38-6.19-5.64-11.29-9.79-15.3Zm-43.73,9.59c3.48-2.32,7.69-3.49,12.62-3.49s9.05,1.16,12.36,3.49c3.31,2.32,5.8,5.54,7.48,9.63,1.2,2.93,1.97,6.23,2.31,9.89h-45.26c.3-3.66,1.15-7.05,2.57-10.15,1.8-3.92,4.44-7.05,7.92-9.37Z"/>
    <path class="cls-2" d="m999.66,447.02c-5.57,0-10.53,1.53-14.88,4.58-4.35,3.05-7.4,7.42-9.14,13.12h-1.04v-16.39h-22.19v97.45h22.89v-57.18c0-4.18.94-7.84,2.83-10.98,1.88-3.14,4.48-5.61,7.79-7.41,3.31-1.8,7.08-2.7,11.31-2.7,1.92,0,3.92.12,6,.35,2.09.23,3.62.52,4.61.87v-21.09c-1.04-.17-2.37-.32-3.96-.44-1.6-.12-3-.17-4.22-.17Z"/>
    <path class="cls-2" d="m1061.18,527.47c-1.22.17-2.32.26-3.31.26-3.66,0-6.32-.92-8.01-2.75-1.68-1.83-2.52-4.66-2.52-8.5v-50.38h19.23v-17.78h-19.23v-23.19h-22.89v23.19h-13.66v17.78h13.66v54.13c0,8.31,2.58,14.86,7.75,19.66,5.16,4.79,12.27,7.19,21.32,7.19,2.49,0,4.99-.19,7.48-.57,2.49-.38,4.96-.94,7.4-1.7l-3.92-17.96c-.99.23-2.09.44-3.31.61Z"/>
    <path class="cls-2" d="m1137.59,504.9c0,4.94-1.02,9.04-3.05,12.29-2.03,3.25-4.63,5.7-7.79,7.32-3.16,1.63-6.43,2.44-9.79,2.44-5.51.06-9.96-1.74-13.36-5.4-3.39-3.66-5.09-8.54-5.09-14.64v-58.58h-22.89v62.06c0,7.79,1.38,14.43,4.13,19.92,2.75,5.49,6.56,9.65,11.4,12.46,4.84,2.82,10.46,4.23,16.84,4.23,7.31.06,13.46-1.66,18.45-5.14,4.99-3.49,8.58-7.96,10.79-13.42h1.04v17.35h22.19v-97.45h-22.89v56.57Z"/>
    <path class="cls-2" d="m1243.41,451.38c-4.99-2.85-10.85-4.27-17.58-4.27-7.31,0-13.33,1.61-18.06,4.84-4.73,3.23-8.19,7.57-10.4,13.03h-1.13v-16.65h-22.45v97.45h22.89v-57.01c0-4.76.88-8.79,2.65-12.07,1.77-3.28,4.21-5.8,7.31-7.54,3.1-1.74,6.66-2.62,10.66-2.62,5.92,0,10.56,1.85,13.92,5.54,3.36,3.69,5.05,8.79,5.05,15.3v58.4h22.89v-61.98c0-7.79-1.38-14.43-4.13-19.92-2.76-5.49-6.63-9.66-11.62-12.51Z"/>
    <path class="cls-2" d="m1337.83,464.45h-1.22c-1.22-2.32-2.93-4.84-5.13-7.54-2.21-2.7-5.16-5.01-8.88-6.93-3.71-1.92-8.41-2.88-14.1-2.88-7.48,0-14.27,1.92-20.36,5.75-6.09,3.84-10.92,9.44-14.49,16.82-3.57,7.38-5.35,16.42-5.35,27.11s1.78,19.38,5.35,26.41c3.57,7.03,8.38,12.32,14.45,15.86,6.06,3.55,12.81,5.32,20.23,5.32,5.63,0,10.28-.86,13.97-2.57,3.68-1.71,6.66-3.81,8.92-6.28,2.26-2.47,3.94-4.87,5.05-7.19h1.31v18.39c0,7.15-2.13,12.3-6.4,15.47-4.26,3.17-9.65,4.75-16.14,4.75-4.58,0-8.38-.62-11.4-1.87-3.02-1.25-5.42-2.82-7.22-4.71-1.8-1.89-3.16-3.79-4.09-5.71l-20.54,5.06c2.03,6.8,6.58,12.6,13.66,17.39,7.08,4.79,16.79,7.19,29.15,7.19,8.76,0,16.58-1.35,23.45-4.05,6.87-2.7,12.28-6.79,16.23-12.25,3.94-5.46,5.92-12.35,5.92-20.66v-99.02h-22.36v16.13Zm-6.13,54c-3.97,5.26-9.62,7.89-16.93,7.89-4.99,0-9.21-1.23-12.66-3.7-3.45-2.47-6.05-5.94-7.79-10.42-1.74-4.47-2.61-9.68-2.61-15.6s.86-11.11,2.57-15.73c1.71-4.62,4.28-8.27,7.7-10.94,3.42-2.67,7.69-4.01,12.79-4.01s9.11,1.28,12.53,3.84c3.42,2.56,6,6.13,7.74,10.72,1.74,4.59,2.61,9.97,2.61,16.13,0,9.3-1.99,16.58-5.96,21.83Z"/>
    <path class="cls-2" d="m1446.39,458.87c-4.15-4.01-8.91-6.97-14.27-8.89-5.37-1.92-11.04-2.88-17.01-2.88-9.28,0-17.35,2.12-24.19,6.36-6.85,4.24-12.15,10.15-15.92,17.74-3.77,7.58-5.66,16.4-5.66,26.46s1.9,19,5.7,26.5c3.8,7.5,9.24,13.29,16.32,17.39,7.08,4.1,15.49,6.15,25.24,6.15,7.54,0,14.23-1.15,20.06-3.44,5.83-2.29,10.62-5.55,14.36-9.76,3.74-4.21,6.31-9.14,7.7-14.77l-21.41-2.53c-1.04,2.79-2.54,5.13-4.48,7.02-1.94,1.89-4.26,3.3-6.96,4.23-2.7.93-5.67,1.39-8.92,1.39-4.99,0-9.36-1.1-13.1-3.31-3.74-2.21-6.64-5.42-8.7-9.63-1.85-3.79-2.87-8.29-3.05-13.47h67.66v-7.15c0-8.54-1.19-15.91-3.57-22.1-2.38-6.19-5.64-11.29-9.79-15.3Zm-43.73,9.59c3.48-2.32,7.69-3.49,12.62-3.49s9.05,1.16,12.36,3.49c3.31,2.32,5.8,5.54,7.48,9.63,1.2,2.93,1.97,6.23,2.31,9.89h-45.26c.3-3.66,1.15-7.05,2.57-10.15,1.8-3.92,4.44-7.05,7.92-9.37Z"/>
    <path class="cls-2" d="m1549.77,463.89c-2.76-5.49-6.63-9.66-11.62-12.51-4.99-2.85-10.85-4.27-17.58-4.27-7.31,0-13.33,1.61-18.06,4.84-4.73,3.23-8.19,7.57-10.4,13.03h-1.13v-16.65h-22.45v97.45h22.89v-57.01c0-4.76.88-8.79,2.65-12.07,1.77-3.28,4.21-5.8,7.31-7.54,3.1-1.74,6.66-2.62,10.66-2.62,5.92,0,10.56,1.85,13.92,5.54,3.36,3.69,5.05,8.79,5.05,15.3v58.4h22.89v-61.98c0-7.79-1.38-14.43-4.13-19.92Z"/>
  </g>
  <g>
    <path class="cls-3" d="m719.28,68.38c-46.79,0-84.72,37.93-84.72,84.72h141.91s27.53-84.72,27.53-84.72h-84.72Z"/>
    <path class="cls-3" d="m894.43,72.53c-14.46-44.5-62.25-68.85-106.75-54.39h0l43.85,134.97h89.08s-26.18-80.57-26.18-80.57Z"/>
    <path class="cls-3" d="m944.61,240.38c37.85-27.5,46.25-80.48,18.74-118.34h0l-114.81,83.41,27.53,84.72,68.54-49.8Z"/>
    <path class="cls-3" d="m800.47,339.98c37.85,27.5,90.84,19.11,118.34-18.74h0l-114.81-83.41-72.07,52.36,68.54,49.8Z"/>
    <path class="cls-3" d="m661.21,233.67c-14.46,44.5,9.89,92.29,54.39,106.75h0l43.85-134.97-72.07-52.36-26.18,80.57Z"/>
  </g>
  <g>
    <path class="cls-1" d="m797.9,666.67c-1.37-1.1-2.9-2.02-4.6-2.76-1.7-.73-3.47-1.32-5.31-1.76l-4.55-1.15c-1.33-.35-2.64-.79-3.92-1.31-1.28-.53-2.33-1.22-3.15-2.08-.82-.86-1.23-1.97-1.23-3.33,0-1.23.35-2.32,1.05-3.28.7-.96,1.71-1.72,3.03-2.26,1.32-.55,2.9-.82,4.73-.82,2.64,0,4.78.57,6.41,1.72,1.63,1.15,2.55,2.77,2.77,4.87h8.55c-.07-2.76-.84-5.2-2.33-7.32-1.49-2.12-3.54-3.79-6.16-4.99-2.62-1.2-5.67-1.81-9.14-1.81s-6.46.6-9.16,1.81c-2.7,1.2-4.82,2.88-6.37,5.04-1.55,2.16-2.33,4.68-2.33,7.57,0,3.52,1.16,6.34,3.47,8.45,2.32,2.11,5.48,3.68,9.5,4.71l5.54,1.44c1.77.44,3.31.94,4.62,1.51,1.31.57,2.34,1.26,3.08,2.08.74.82,1.11,1.87,1.11,3.13,0,1.4-.42,2.63-1.25,3.68-.83,1.05-1.98,1.87-3.44,2.46-1.46.59-3.16.89-5.08.89s-3.5-.28-5-.85c-1.5-.57-2.7-1.42-3.62-2.54-.92-1.13-1.44-2.54-1.57-4.25h-8.72c.13,3.24.98,5.99,2.56,8.25,1.57,2.26,3.76,3.99,6.55,5.17,2.8,1.18,6.09,1.77,9.9,1.77s7.21-.61,9.96-1.84c2.75-1.23,4.86-2.93,6.32-5.1,1.46-2.18,2.2-4.69,2.2-7.53,0-2.12-.4-3.97-1.2-5.55-.8-1.57-1.88-2.92-3.24-4.02Z"/>
    <polygon class="cls-1" points="839.76 653.27 829.67 653.27 816.53 668 815.9 668 815.9 641.05 807.28 641.05 807.28 689.96 815.9 689.96 815.9 677.66 819.04 674.29 830.26 689.96 840.58 689.96 825.56 669.13 839.76 653.27"/>
    <path class="cls-1" d="m868.87,657.24c-1.56-1.51-3.35-2.63-5.37-3.35-2.02-.72-4.16-1.08-6.41-1.08-3.5,0-6.53.8-9.11,2.4-2.58,1.6-4.58,3.82-6,6.68-1.42,2.86-2.13,6.18-2.13,9.96s.71,7.16,2.15,9.98c1.43,2.82,3.48,5.01,6.14,6.55,2.66,1.54,5.83,2.31,9.5,2.31,2.84,0,5.36-.43,7.55-1.3,2.2-.86,4-2.09,5.41-3.68,1.41-1.59,2.38-3.44,2.9-5.56l-8.06-.95c-.39,1.05-.96,1.93-1.69,2.64-.73.71-1.61,1.24-2.62,1.59-1.02.35-2.14.52-3.36.52-1.88,0-3.52-.42-4.93-1.25-1.41-.83-2.5-2.04-3.28-3.63-.7-1.43-1.08-3.12-1.15-5.07h25.48v-2.69c0-3.22-.45-5.99-1.34-8.32-.9-2.33-2.13-4.25-3.69-5.76Zm-16.47,3.61c1.31-.87,2.89-1.31,4.75-1.31s3.41.44,4.65,1.31c1.25.88,2.18,2.08,2.82,3.63.45,1.1.74,2.35.87,3.73h-17.04c.11-1.38.43-2.66.97-3.82.68-1.48,1.67-2.65,2.98-3.53Z"/>
    <path class="cls-1" d="m906,657.24c-1.56-1.51-3.35-2.63-5.37-3.35-2.02-.72-4.16-1.08-6.41-1.08-3.5,0-6.53.8-9.11,2.4-2.58,1.6-4.58,3.82-6,6.68-1.42,2.86-2.13,6.18-2.13,9.96s.72,7.16,2.15,9.98c1.43,2.82,3.48,5.01,6.14,6.55,2.67,1.54,5.83,2.31,9.5,2.31,2.84,0,5.36-.43,7.55-1.3,2.2-.86,4-2.09,5.41-3.68,1.41-1.59,2.38-3.44,2.9-5.56l-8.06-.95c-.39,1.05-.96,1.93-1.69,2.64-.73.71-1.61,1.24-2.62,1.59-1.02.35-2.14.52-3.36.52-1.88,0-3.52-.42-4.93-1.25-1.41-.83-2.5-2.04-3.28-3.63-.7-1.43-1.08-3.12-1.15-5.07h25.48v-2.69c0-3.22-.45-5.99-1.34-8.32-.9-2.33-2.13-4.25-3.69-5.76Zm-16.47,3.61c1.31-.87,2.89-1.31,4.75-1.31s3.41.44,4.65,1.31c1.25.88,2.18,2.08,2.82,3.63.45,1.1.74,2.35.87,3.73h-17.04c.11-1.38.43-2.66.97-3.82.68-1.48,1.67-2.65,2.98-3.53Z"/>
    <path class="cls-1" d="m942.78,654.97c-2.27-1.44-4.82-2.17-7.64-2.17-2.16,0-3.94.36-5.32,1.08-1.39.72-2.49,1.59-3.29,2.61-.81,1.02-1.43,1.96-1.87,2.84h-.52v-6.07h-8.45v50.42h8.62v-19.53h.36c.44.9,1.08,1.84,1.92,2.84.84,1,1.95,1.85,3.34,2.56,1.39.71,3.12,1.07,5.19,1.07,2.88,0,5.47-.74,7.75-2.22,2.28-1.48,4.08-3.63,5.39-6.45,1.31-2.82,1.97-6.25,1.97-10.27s-.67-7.54-2.02-10.34c-1.34-2.8-3.15-4.92-5.42-6.37Zm-2.36,22.78c-.66,1.79-1.62,3.21-2.9,4.23-1.28,1.03-2.87,1.54-4.77,1.54s-3.4-.5-4.69-1.49c-1.29-1-2.27-2.38-2.93-4.17-.67-1.78-1-3.86-1-6.22s.33-4.46,1-6.22c.67-1.76,1.64-3.12,2.92-4.09,1.28-.96,2.85-1.44,4.7-1.44s3.52.5,4.78,1.51c1.27,1.01,2.23,2.4,2.88,4.17.66,1.77.98,3.8.98,6.07s-.33,4.31-.98,6.11Z"/>
    <path class="cls-1" d="m982.45,657.24c-1.56-1.51-3.35-2.63-5.37-3.35-2.02-.72-4.16-1.08-6.41-1.08-3.5,0-6.53.8-9.11,2.4-2.58,1.6-4.58,3.82-6,6.68-1.42,2.86-2.13,6.18-2.13,9.96s.72,7.16,2.15,9.98c1.43,2.82,3.48,5.01,6.14,6.55,2.66,1.54,5.83,2.31,9.5,2.31,2.84,0,5.36-.43,7.55-1.3,2.2-.86,4-2.09,5.41-3.68,1.41-1.59,2.38-3.44,2.9-5.56l-8.06-.95c-.39,1.05-.96,1.93-1.69,2.64-.73.71-1.61,1.24-2.62,1.59-1.02.35-2.14.52-3.36.52-1.88,0-3.52-.42-4.93-1.25-1.41-.83-2.5-2.04-3.28-3.63-.7-1.43-1.08-3.12-1.15-5.07h25.48v-2.69c0-3.22-.45-5.99-1.34-8.32-.9-2.33-2.13-4.25-3.69-5.76Zm-16.47,3.61c1.31-.87,2.89-1.31,4.75-1.31s3.41.44,4.65,1.31c1.25.88,2.18,2.08,2.82,3.63.45,1.1.74,2.35.87,3.73h-17.04c.11-1.38.43-2.66.97-3.82.68-1.48,1.67-2.65,2.98-3.53Z"/>
    <path class="cls-1" d="m1009.92,652.77c-2.1,0-3.96.57-5.6,1.72-1.64,1.15-2.79,2.8-3.44,4.94h-.39v-6.17h-8.36v36.7h8.62v-21.53c0-1.58.35-2.95,1.06-4.14.71-1.18,1.69-2.11,2.93-2.79,1.25-.68,2.66-1.02,4.26-1.02.72,0,1.47.04,2.26.13.79.09,1.36.2,1.74.33v-7.94c-.39-.07-.89-.12-1.49-.16-.6-.04-1.13-.07-1.59-.07Z"/>
    <path class="cls-1" d="m1043.38,672.6c-1.7-1.64-4.27-2.82-7.7-3.54l-6.26-1.31c-1.86-.42-3.18-.97-3.98-1.66-.8-.69-1.2-1.57-1.2-2.64,0-1.23.61-2.23,1.82-3.02,1.21-.79,2.71-1.18,4.51-1.18,1.99,0,3.53.46,4.62,1.39,1.09.93,1.8,2,2.13,3.2l7.83-.82c-.59-3.11-2.11-5.59-4.57-7.43-2.46-1.85-5.84-2.77-10.14-2.77-2.93,0-5.51.46-7.73,1.38-2.23.92-3.96,2.21-5.21,3.87-1.25,1.66-1.87,3.63-1.87,5.91,0,2.67.84,4.86,2.52,6.58,1.68,1.72,4.28,2.96,7.8,3.73l6.26,1.31c3.28.74,4.91,2.14,4.91,4.2,0,1.23-.62,2.26-1.87,3.1-1.25.84-2.9,1.26-4.95,1.26s-3.58-.42-4.83-1.26c-1.26-.84-2.07-2.08-2.44-3.73l-8.42.79c.55,3.37,2.18,6,4.9,7.89,2.72,1.89,6.32,2.84,10.8,2.84,3.06,0,5.76-.49,8.11-1.48,2.35-.99,4.19-2.36,5.52-4.14,1.33-1.77,2-3.81,2-6.11,0-2.6-.85-4.73-2.56-6.37Z"/>
  </g>
  <g>
    <path class="cls-1" d="m587.62,690.62c-2.08,0-3.81-.36-5.2-1.07-1.39-.71-2.51-1.56-3.35-2.56-.84-1-1.48-1.94-1.92-2.84h-.53v5.81h-8.47v-48.91h8.63v18.29h.36c.44-.88,1.06-1.82,1.87-2.84.81-1.02,1.91-1.89,3.3-2.61,1.39-.72,3.17-1.08,5.33-1.08,2.82,0,5.37.72,7.65,2.17,2.28,1.44,4.09,3.57,5.43,6.37,1.35,2.8,2.02,6.25,2.02,10.34s-.66,7.45-1.97,10.28c-1.31,2.82-3.11,4.97-5.4,6.45-2.29,1.48-4.87,2.22-7.76,2.22Zm-2.36-7.09c1.9,0,3.5-.51,4.78-1.54,1.28-1.03,2.25-2.44,2.91-4.23.66-1.79.98-3.83.98-6.11s-.33-4.3-.98-6.07c-.66-1.77-1.62-3.16-2.89-4.17-1.27-1.01-2.87-1.51-4.79-1.51s-3.43.48-4.71,1.44c-1.28.96-2.25,2.33-2.92,4.09-.67,1.76-1,3.84-1,6.22s.33,4.44,1,6.22c.67,1.78,1.65,3.17,2.94,4.17,1.29,1,2.86,1.49,4.69,1.49Z"/>
    <path class="cls-1" d="m611.69,703.68c-1.18.02-2.27-.06-3.27-.25-1-.19-1.8-.4-2.41-.64l2.04-6.73.43.13c1.75.46,3.24.49,4.48.1,1.24-.39,2.23-1.59,2.97-3.58l.72-1.97-13.26-37.49h9.16l8.44,27.74h.39l8.47-27.74h9.22l-14.71,41.13c-.68,1.95-1.58,3.62-2.69,5.01-1.12,1.39-2.49,2.45-4.14,3.18-1.64.73-3.59,1.1-5.84,1.1Z"/>
  </g>
  <g>
    <circle class="cls-3" cx="728.04" cy="640.14" r="12.71"/>
    <circle class="cls-3" cx="677.21" cy="690.97" r="12.71"/>
    <path class="cls-3" d="m715.33,627.43h-25.42c-14.04,0-25.42,11.38-25.42,25.42s11.38,25.42,25.42,25.42v-25.42h25.42v-25.42Z"/>
    <path class="cls-3" d="m715.33,652.85v25.42h-25.42v25.42h25.42s0,0,0,0c14.04,0,25.42-11.38,25.42-25.42s-11.38-25.42-25.42-25.42Z"/>
  </g>
</svg>