<?xml version="1.0" encoding="UTF-8"?>
<svg id="Layer_1" data-name="Layer 1" xmlns="http://www.w3.org/2000/svg" viewBox="0 0 1630.65 723.2">
  <defs>
    <style>
      .cls-1 {
        fill: #111115;
      }

      .cls-1, .cls-2, .cls-3 {
        stroke-width: 0px;
      }

      .cls-2 {
        fill: #090912;
      }

      .cls-3 {
        fill: #0073ff;
      }
    </style>
  </defs>
  <g>
    <path class="cls-3" d="m719.28,68.38c-46.79,0-84.72,37.93-84.72,84.72h141.91s27.53-84.72,27.53-84.72h-84.72Z"/>
    <path class="cls-3" d="m894.43,72.53c-14.46-44.5-62.25-68.85-106.75-54.39h0l43.85,134.97h89.08s-26.18-80.57-26.18-80.57Z"/>
    <path class="cls-3" d="m944.61,240.38c37.85-27.5,46.25-80.48,18.74-118.34h0l-114.81,83.41,27.53,84.72,68.54-49.8Z"/>
    <path class="cls-3" d="m800.47,339.98c37.85,27.5,90.84,19.11,118.34-18.74h0l-114.81-83.41-72.07,52.36,68.54,49.8Z"/>
    <path class="cls-3" d="m661.21,233.67c-14.46,44.5,9.89,92.29,54.39,106.75h0l43.85-134.97-72.07-52.36-26.18,80.57Z"/>
  </g>
  <g>
    <path class="cls-1" d="m797.9,666.67c-1.37-1.1-2.9-2.02-4.6-2.76-1.7-.73-3.47-1.32-5.31-1.76l-4.55-1.15c-1.33-.35-2.64-.79-3.92-1.31-1.28-.53-2.33-1.22-3.15-2.08-.82-.86-1.23-1.97-1.23-3.33,0-1.23.35-2.32,1.05-3.28.7-.96,1.71-1.72,3.03-2.26,1.32-.55,2.9-.82,4.73-.82,2.64,0,4.78.57,6.41,1.72,1.63,1.15,2.55,2.77,2.77,4.87h8.55c-.07-2.76-.84-5.2-2.33-7.32-1.49-2.12-3.54-3.79-6.16-4.99-2.62-1.2-5.67-1.81-9.14-1.81s-6.46.6-9.16,1.81c-2.7,1.2-4.82,2.88-6.37,5.04-1.55,2.16-2.33,4.68-2.33,7.57,0,3.52,1.16,6.34,3.47,8.45,2.32,2.11,5.48,3.68,9.5,4.71l5.54,1.44c1.77.44,3.31.94,4.62,1.51,1.31.57,2.34,1.26,3.08,2.08.74.82,1.11,1.87,1.11,3.13,0,1.4-.42,2.63-1.25,3.68-.83,1.05-1.98,1.87-3.44,2.46-1.46.59-3.16.89-5.08.89s-3.5-.28-5-.85c-1.5-.57-2.7-1.42-3.62-2.54-.92-1.13-1.44-2.54-1.57-4.25h-8.72c.13,3.24.98,5.99,2.56,8.25,1.57,2.26,3.76,3.99,6.55,5.17,2.8,1.18,6.09,1.77,9.9,1.77s7.21-.61,9.96-1.84c2.75-1.23,4.86-2.93,6.32-5.1,1.46-2.18,2.2-4.69,2.2-7.53,0-2.12-.4-3.97-1.2-5.55-.8-1.57-1.88-2.92-3.24-4.02Z"/>
    <polygon class="cls-1" points="839.76 653.27 829.67 653.27 816.53 668 815.9 668 815.9 641.05 807.28 641.05 807.28 689.96 815.9 689.96 815.9 677.66 819.04 674.29 830.26 689.96 840.58 689.96 825.56 669.13 839.76 653.27"/>
    <path class="cls-1" d="m868.87,657.24c-1.56-1.51-3.35-2.63-5.37-3.35-2.02-.72-4.16-1.08-6.41-1.08-3.5,0-6.53.8-9.11,2.4-2.58,1.6-4.58,3.82-6,6.68-1.42,2.86-2.13,6.18-2.13,9.96s.71,7.16,2.15,9.98c1.43,2.82,3.48,5.01,6.14,6.55,2.66,1.54,5.83,2.31,9.5,2.31,2.84,0,5.36-.43,7.55-1.3,2.2-.86,4-2.09,5.41-3.68,1.41-1.59,2.38-3.44,2.9-5.56l-8.06-.95c-.39,1.05-.96,1.93-1.69,2.64-.73.71-1.61,1.24-2.62,1.59-1.02.35-2.14.52-3.36.52-1.88,0-3.52-.42-4.93-1.25-1.41-.83-2.5-2.04-3.28-3.63-.7-1.43-1.08-3.12-1.15-5.07h25.48v-2.69c0-3.22-.45-5.99-1.34-8.32-.9-2.33-2.13-4.25-3.69-5.76Zm-20.42,10.96c.11-1.38.43-2.66.97-3.82.68-1.48,1.67-2.65,2.98-3.53,1.31-.87,2.89-1.31,4.75-1.31s3.41.44,4.65,1.31c1.25.88,2.18,2.08,2.82,3.63.45,1.1.74,2.35.87,3.73h-17.04Z"/>
    <path class="cls-1" d="m906,657.24c-1.56-1.51-3.35-2.63-5.37-3.35-2.02-.72-4.16-1.08-6.41-1.08-3.5,0-6.53.8-9.11,2.4-2.58,1.6-4.58,3.82-6,6.68-1.42,2.86-2.13,6.18-2.13,9.96s.72,7.16,2.15,9.98c1.43,2.82,3.48,5.01,6.14,6.55,2.67,1.54,5.83,2.31,9.5,2.31,2.84,0,5.36-.43,7.55-1.3,2.2-.86,4-2.09,5.41-3.68,1.41-1.59,2.38-3.44,2.9-5.56l-8.06-.95c-.39,1.05-.96,1.93-1.69,2.64-.73.71-1.61,1.24-2.62,1.59-1.02.35-2.14.52-3.36.52-1.88,0-3.52-.42-4.93-1.25-1.41-.83-2.5-2.04-3.28-3.63-.7-1.43-1.08-3.12-1.15-5.07h25.48v-2.69c0-3.22-.45-5.99-1.34-8.32-.9-2.33-2.13-4.25-3.69-5.76Zm-20.42,10.96c.11-1.38.43-2.66.97-3.82.68-1.48,1.67-2.65,2.98-3.53,1.31-.87,2.89-1.31,4.75-1.31s3.41.44,4.65,1.31c1.25.88,2.18,2.08,2.82,3.63.45,1.1.74,2.35.87,3.73h-17.04Z"/>
    <path class="cls-1" d="m942.78,654.97c-2.27-1.44-4.82-2.17-7.64-2.17-2.16,0-3.94.36-5.32,1.08-1.39.72-2.49,1.59-3.29,2.61-.81,1.02-1.43,1.96-1.87,2.84h-.52v-6.07h-8.45v50.42h8.62v-19.53h.36c.44.9,1.08,1.84,1.92,2.84.84,1,1.96,1.85,3.34,2.56,1.39.71,3.12,1.07,5.19,1.07,2.88,0,5.47-.74,7.75-2.22,2.28-1.48,4.08-3.63,5.39-6.45,1.31-2.82,1.97-6.25,1.97-10.27s-.67-7.54-2.02-10.34c-1.34-2.8-3.15-4.92-5.42-6.37Zm-2.36,22.78c-.66,1.79-1.62,3.21-2.9,4.23-1.28,1.03-2.87,1.54-4.77,1.54s-3.4-.5-4.69-1.49c-1.29-1-2.27-2.38-2.93-4.17-.67-1.78-1-3.86-1-6.22s.33-4.46,1-6.22c.67-1.76,1.64-3.12,2.92-4.09,1.28-.96,2.85-1.44,4.7-1.44s3.52.5,4.78,1.51c1.27,1.01,2.23,2.4,2.88,4.17.66,1.77.98,3.8.98,6.07s-.33,4.31-.98,6.11Z"/>
    <path class="cls-1" d="m982.45,657.24c-1.56-1.51-3.35-2.63-5.37-3.35-2.02-.72-4.16-1.08-6.41-1.08-3.5,0-6.53.8-9.11,2.4-2.58,1.6-4.58,3.82-6,6.68-1.42,2.86-2.13,6.18-2.13,9.96s.72,7.16,2.15,9.98c1.43,2.82,3.48,5.01,6.14,6.55,2.66,1.54,5.83,2.31,9.5,2.31,2.84,0,5.36-.43,7.55-1.3,2.2-.86,4-2.09,5.41-3.68,1.41-1.59,2.38-3.44,2.9-5.56l-8.06-.95c-.39,1.05-.96,1.93-1.69,2.64-.73.71-1.61,1.24-2.62,1.59-1.02.35-2.14.52-3.36.52-1.88,0-3.52-.42-4.93-1.25-1.41-.83-2.5-2.04-3.28-3.63-.7-1.43-1.08-3.12-1.15-5.07h25.48v-2.69c0-3.22-.45-5.99-1.34-8.32-.9-2.33-2.13-4.25-3.69-5.76Zm-20.42,10.96c.11-1.38.43-2.66.97-3.82.68-1.48,1.67-2.65,2.98-3.53,1.31-.87,2.89-1.31,4.75-1.31s3.41.44,4.65,1.31c1.25.88,2.18,2.08,2.82,3.63.45,1.1.74,2.35.87,3.73h-17.04Z"/>
    <path class="cls-1" d="m1009.92,652.77c-2.1,0-3.96.57-5.6,1.72-1.64,1.15-2.79,2.8-3.44,4.94h-.39v-6.17h-8.36v36.7h8.62v-21.53c0-1.58.35-2.95,1.06-4.14.71-1.18,1.69-2.11,2.93-2.79,1.25-.68,2.66-1.02,4.26-1.02.72,0,1.47.04,2.26.13.79.09,1.36.2,1.74.33v-7.94c-.39-.07-.89-.12-1.49-.16-.6-.04-1.13-.07-1.59-.07Z"/>
    <path class="cls-1" d="m1043.38,672.6c-1.7-1.64-4.27-2.82-7.7-3.54l-6.26-1.31c-1.86-.42-3.18-.97-3.98-1.66-.8-.69-1.2-1.57-1.2-2.64,0-1.23.61-2.23,1.82-3.02,1.21-.79,2.71-1.18,4.51-1.18,1.99,0,3.53.46,4.62,1.39,1.09.93,1.8,2,2.13,3.2l7.83-.82c-.59-3.11-2.11-5.59-4.57-7.43-2.46-1.85-5.84-2.77-10.14-2.77-2.93,0-5.51.46-7.73,1.38-2.23.92-3.97,2.21-5.21,3.87-1.25,1.66-1.87,3.63-1.87,5.91,0,2.67.84,4.86,2.52,6.58,1.68,1.72,4.28,2.96,7.8,3.73l6.26,1.31c3.28.74,4.91,2.14,4.91,4.2,0,1.23-.62,2.26-1.87,3.1-1.25.84-2.9,1.26-4.95,1.26s-3.58-.42-4.83-1.26c-1.26-.84-2.07-2.08-2.44-3.73l-8.42.79c.55,3.37,2.18,6,4.9,7.89,2.72,1.89,6.32,2.84,10.8,2.84,3.06,0,5.76-.49,8.11-1.48,2.35-.99,4.19-2.36,5.52-4.14,1.33-1.77,2-3.81,2-6.11,0-2.6-.85-4.73-2.56-6.37Z"/>
    <circle class="cls-3" cx="677.21" cy="690.97" r="12.71"/>
    <path class="cls-3" d="m715.33,652.85v-12.71c0,7.02,5.69,12.71,12.71,12.71s12.71-5.69,12.71-12.71-5.69-12.71-12.71-12.71-12.71,5.69-12.71,12.71v-12.71h-25.42c-14.04,0-25.42,11.38-25.42,25.42s11.38,25.42,25.42,25.42v-25.42h25.42Z"/>
    <path class="cls-3" d="m715.33,652.85v25.42h-25.42v25.42h25.42s0,0,0,0c14.04,0,25.42-11.38,25.42-25.42s-11.38-25.42-25.42-25.42Z"/>
    <path class="cls-1" d="m595.31,654.97c-2.28-1.44-4.83-2.17-7.65-2.17-2.17,0-3.95.36-5.33,1.08-1.39.72-2.49,1.59-3.3,2.61-.81,1.02-1.43,1.96-1.87,2.84h-.36v-18.29h-8.63v48.91h8.47v-5.81h.53c.44.9,1.08,1.84,1.92,2.84.84,1,1.96,1.85,3.35,2.56,1.39.71,3.12,1.07,5.2,1.07,2.89,0,5.48-.74,7.76-2.22,2.29-1.48,4.09-3.63,5.4-6.45,1.31-2.82,1.97-6.25,1.97-10.28s-.67-7.54-2.02-10.34c-1.35-2.8-3.16-4.92-5.43-6.37Zm-2.36,22.78c-.66,1.79-1.63,3.21-2.91,4.23-1.28,1.03-2.87,1.54-4.78,1.54s-3.4-.5-4.69-1.49c-1.29-1-2.27-2.39-2.94-4.17-.67-1.78-1-3.86-1-6.22s.33-4.46,1-6.22c.67-1.76,1.64-3.12,2.92-4.09,1.28-.96,2.85-1.44,4.71-1.44s3.52.5,4.79,1.51c1.27,1.01,2.23,2.4,2.89,4.17.66,1.77.98,3.8.98,6.07s-.33,4.31-.98,6.11Z"/>
    <path class="cls-1" d="m621.37,681h-.39l-8.44-27.74h-9.16l13.26,37.49-.72,1.97c-.74,1.99-1.73,3.18-2.97,3.58-1.24.39-2.73.36-4.48-.1l-.43-.13-2.04,6.73c.61.24,1.42.45,2.41.64,1,.19,2.08.27,3.27.25,2.25,0,4.2-.37,5.84-1.1,1.64-.73,3.02-1.79,4.14-3.18,1.12-1.39,2.01-3.06,2.69-5.01l14.71-41.13h-9.22l-8.47,27.74Z"/>
  </g>
  <g>
    <path class="cls-2" d="m95.18,493.22c6.84-3.31,12.02-8.02,15.53-14.12,3.51-6.1,5.26-13.31,5.26-21.62s-1.74-15.5-5.22-21.75c-3.48-6.25-8.6-11.11-15.36-14.6-6.76-3.49-15.13-5.23-25.11-5.23H21.65v129.88h23.5v-47.59h23.97l25.37,47.59h26.28l-28.05-51.47c.84-.34,1.67-.7,2.47-1.09Zm-50.04-57.62h21.49c5.92,0,10.73.86,14.45,2.57,3.71,1.71,6.47,4.21,8.27,7.5,1.8,3.28,2.7,7.22,2.7,11.81s-.88,8.47-2.65,11.64c-1.77,3.17-4.52,5.57-8.27,7.19-3.74,1.63-8.54,2.44-14.4,2.44h-21.58v-43.15Z"/>
    <path class="cls-2" d="m197.91,458.87c-4.15-4.01-8.91-6.97-14.27-8.89-5.37-1.92-11.04-2.88-17.01-2.88-9.28,0-17.35,2.12-24.19,6.36-6.85,4.24-12.15,10.16-15.92,17.74-3.77,7.58-5.66,16.4-5.66,26.46s1.9,19,5.7,26.5c3.8,7.5,9.24,13.29,16.32,17.39,7.08,4.1,15.49,6.15,25.24,6.15,7.54,0,14.23-1.15,20.06-3.44s10.62-5.55,14.36-9.76c3.74-4.21,6.31-9.14,7.7-14.77l-21.41-2.53c-1.04,2.79-2.54,5.13-4.48,7.02-1.94,1.89-4.26,3.3-6.96,4.23-2.7.93-5.67,1.39-8.92,1.39-4.99,0-9.35-1.1-13.1-3.31-3.74-2.21-6.64-5.42-8.7-9.63-1.85-3.79-2.87-8.29-3.05-13.47h67.66v-7.15c0-8.54-1.19-15.91-3.57-22.1-2.38-6.19-5.64-11.29-9.79-15.3Zm-43.73,9.59c3.48-2.32,7.69-3.49,12.62-3.49s9.05,1.16,12.36,3.49,5.8,5.54,7.48,9.63c1.2,2.93,1.97,6.23,2.31,9.89h-45.26c.3-3.66,1.15-7.05,2.57-10.15,1.8-3.92,4.44-7.05,7.92-9.37Z"/>
    <path class="cls-2" d="m250.3,469.38c3.51-2.53,7.61-3.79,12.31-3.79,3.71,0,6.92.73,9.62,2.18,2.7,1.45,4.89,3.43,6.57,5.93,1.68,2.5,2.81,5.32,3.39,8.46h21.93c-.52-7.03-2.6-13.18-6.22-18.44-3.63-5.26-8.48-9.34-14.58-12.25-6.09-2.91-13.11-4.36-21.06-4.36-9.46,0-17.67,2.14-24.63,6.41-6.96,4.27-12.33,10.18-16.1,17.74-3.77,7.55-5.66,16.3-5.66,26.24s1.86,18.51,5.57,26.06c3.71,7.55,9.05,13.47,16.01,17.74,6.96,4.27,15.29,6.41,24.97,6.41,8.12,0,15.2-1.5,21.23-4.49,6.03-2.99,10.82-7.13,14.36-12.42,3.54-5.29,5.57-11.39,6.09-18.3h-21.93c-.99,5.23-3.23,9.33-6.74,12.29-3.51,2.96-7.79,4.45-12.83,4.45-4.76,0-8.91-1.29-12.44-3.88-3.54-2.58-6.27-6.28-8.18-11.07-1.92-4.79-2.87-10.5-2.87-17.13s.99-12.2,2.96-16.91c1.97-4.71,4.71-8.33,8.22-10.85Z"/>
    <path class="cls-2" d="m385.8,458.87c-4.15-4.01-8.91-6.97-14.27-8.89-5.37-1.92-11.04-2.88-17.01-2.88-9.28,0-17.35,2.12-24.19,6.36-6.85,4.24-12.15,10.16-15.92,17.74-3.77,7.58-5.66,16.4-5.66,26.46s1.9,19,5.7,26.5c3.8,7.5,9.24,13.29,16.32,17.39,7.08,4.1,15.49,6.15,25.24,6.15,7.54,0,14.23-1.15,20.06-3.44,5.83-2.29,10.62-5.55,14.36-9.76,3.74-4.21,6.31-9.14,7.7-14.77l-21.41-2.53c-1.04,2.79-2.54,5.13-4.48,7.02-1.94,1.89-4.26,3.3-6.96,4.23-2.7.93-5.67,1.39-8.92,1.39-4.99,0-9.36-1.1-13.1-3.31-3.74-2.21-6.64-5.42-8.7-9.63-1.85-3.79-2.87-8.29-3.05-13.47h67.66v-7.15c0-8.54-1.19-15.91-3.57-22.1-2.38-6.19-5.64-11.29-9.79-15.3Zm-43.73,9.59c3.48-2.32,7.69-3.49,12.62-3.49s9.05,1.16,12.36,3.49,5.8,5.54,7.48,9.63c1.2,2.93,1.97,6.23,2.31,9.89h-45.26c.3-3.66,1.15-7.05,2.57-10.15,1.8-3.92,4.44-7.05,7.92-9.37Z"/>
    <path class="cls-2" d="m477.56,451.38c-4.99-2.85-10.85-4.27-17.58-4.27-7.31,0-13.33,1.61-18.06,4.84-4.73,3.23-8.19,7.57-10.4,13.03h-1.13v-16.65h-22.45v97.45h22.89v-57.01c0-4.76.88-8.79,2.65-12.07,1.77-3.28,4.21-5.8,7.31-7.54,3.1-1.74,6.66-2.62,10.66-2.62,5.92,0,10.56,1.85,13.92,5.54,3.36,3.69,5.05,8.79,5.05,15.3v58.4h22.89v-61.98c0-7.79-1.38-14.43-4.13-19.92-2.76-5.49-6.63-9.66-11.62-12.51Z"/>
    <path class="cls-2" d="m558.23,490.25l-16.62-3.49c-4.93-1.1-8.46-2.57-10.57-4.4-2.12-1.83-3.18-4.17-3.18-7.02,0-3.25,1.61-5.93,4.83-8.02s7.21-3.14,11.97-3.14c5.28,0,9.37,1.24,12.27,3.7,2.9,2.47,4.79,5.3,5.66,8.5l20.8-2.18c-1.57-8.25-5.61-14.83-12.14-19.74-6.53-4.91-15.5-7.37-26.93-7.37-7.77,0-14.62,1.22-20.54,3.66-5.92,2.44-10.53,5.87-13.84,10.29-3.31,4.42-4.96,9.65-4.96,15.69,0,7.09,2.23,12.92,6.7,17.48,4.47,4.56,11.37,7.86,20.71,9.89l16.62,3.49c8.7,1.98,13.05,5.7,13.05,11.16,0,3.25-1.65,6-4.96,8.24-3.31,2.24-7.69,3.36-13.14,3.36s-9.5-1.12-12.83-3.36c-3.34-2.24-5.5-5.54-6.48-9.89l-22.36,2.09c1.45,8.95,5.79,15.94,13.01,20.96,7.22,5.03,16.78,7.54,28.67,7.54,8.12,0,15.3-1.31,21.54-3.92,6.24-2.62,11.12-6.28,14.66-10.98,3.54-4.71,5.31-10.11,5.31-16.21,0-6.91-2.26-12.55-6.79-16.91-4.52-4.36-11.34-7.5-20.45-9.41Z"/>
    <rect class="cls-2" x="594.17" y="448.33" width="22.89" height="97.45"/>
    <path class="cls-2" d="m605.66,409.63c-3.66,0-6.79,1.22-9.4,3.66s-3.92,5.4-3.92,8.89,1.31,6.36,3.92,8.8c2.61,2.44,5.74,3.66,9.4,3.66s6.7-1.22,9.31-3.66c2.61-2.44,3.92-5.4,3.92-8.89s-1.3-6.36-3.92-8.8c-2.61-2.44-5.71-3.66-9.31-3.66Z"/>
    <path class="cls-2" d="m697.47,453.38c-6.96-4.18-15.2-6.28-24.71-6.28s-17.75,2.09-24.71,6.28c-6.96,4.18-12.34,10.07-16.14,17.65-3.8,7.58-5.7,16.4-5.7,26.46s1.9,18.77,5.7,26.32c3.8,7.55,9.18,13.42,16.14,17.61,6.96,4.18,15.2,6.28,24.71,6.28s17.75-2.09,24.71-6.28c6.96-4.18,12.36-10.05,16.19-17.61,3.83-7.55,5.74-16.33,5.74-26.32s-1.91-18.87-5.74-26.46c-3.83-7.58-9.22-13.47-16.19-17.65Zm-3.96,60.14c-1.71,4.82-4.28,8.64-7.7,11.46-3.42,2.82-7.78,4.23-13.05,4.23s-9.49-1.41-12.97-4.23c-3.48-2.82-6.08-6.64-7.79-11.46-1.71-4.82-2.57-10.17-2.57-16.04s.86-11.39,2.57-16.21c1.71-4.82,4.31-8.64,7.79-11.46,3.48-2.82,7.8-4.23,12.97-4.23s9.63,1.41,13.05,4.23c3.42,2.82,5.99,6.64,7.7,11.46,1.71,4.82,2.57,10.23,2.57,16.21s-.86,11.22-2.57,16.04Z"/>
    <path class="cls-2" d="m798.07,451.38c-4.99-2.85-10.85-4.27-17.58-4.27-7.31,0-13.33,1.61-18.06,4.84-4.73,3.23-8.19,7.57-10.4,13.03h-1.13v-16.65h-22.45v97.45h22.89v-57.01c0-4.76.88-8.79,2.65-12.07,1.77-3.28,4.21-5.8,7.31-7.54,3.1-1.74,6.66-2.62,10.66-2.62,5.92,0,10.56,1.85,13.92,5.54,3.36,3.69,5.05,8.79,5.05,15.3v58.4h22.89v-61.98c0-7.79-1.38-14.43-4.13-19.92-2.76-5.49-6.63-9.66-11.62-12.51Z"/>
    <rect class="cls-2" x="827.14" y="448.33" width="22.89" height="97.45"/>
    <path class="cls-2" d="m838.62,409.63c-3.66,0-6.79,1.22-9.4,3.66s-3.92,5.4-3.92,8.89,1.31,6.36,3.92,8.8c2.61,2.44,5.74,3.66,9.4,3.66s6.7-1.22,9.31-3.66c2.61-2.44,3.92-5.4,3.92-8.89s-1.3-6.36-3.92-8.8c-2.61-2.44-5.71-3.66-9.31-3.66Z"/>
    <polygon class="cls-2" points="984.48 415.9 950.8 518.06 949.41 518.06 915.73 415.9 889.89 415.9 935.66 545.78 964.55 545.78 1010.23 415.9 984.48 415.9"/>
    <path class="cls-2" d="m1078.59,458.87c-4.15-4.01-8.91-6.97-14.27-8.89-5.37-1.92-11.04-2.88-17.01-2.88-9.28,0-17.35,2.12-24.19,6.36-6.85,4.24-12.15,10.16-15.92,17.74-3.77,7.58-5.66,16.4-5.66,26.46s1.9,19,5.7,26.5c3.8,7.5,9.24,13.29,16.32,17.39,7.08,4.1,15.49,6.15,25.24,6.15,7.54,0,14.23-1.15,20.06-3.44,5.83-2.29,10.62-5.55,14.36-9.76,3.74-4.21,6.31-9.14,7.7-14.77l-21.41-2.53c-1.04,2.79-2.54,5.13-4.48,7.02-1.94,1.89-4.26,3.3-6.96,4.23-2.7.93-5.67,1.39-8.92,1.39-4.99,0-9.36-1.1-13.1-3.31-3.74-2.21-6.64-5.42-8.7-9.63-1.85-3.79-2.87-8.29-3.05-13.47h67.66v-7.15c0-8.54-1.19-15.91-3.57-22.1-2.38-6.19-5.64-11.29-9.79-15.3Zm-43.73,9.59c3.48-2.32,7.69-3.49,12.62-3.49s9.05,1.16,12.36,3.49,5.8,5.54,7.48,9.63c1.2,2.93,1.97,6.23,2.31,9.89h-45.26c.3-3.66,1.15-7.05,2.57-10.15,1.8-3.92,4.44-7.05,7.92-9.37Z"/>
    <path class="cls-2" d="m1147.99,447.02c-5.57,0-10.53,1.53-14.88,4.58-4.35,3.05-7.4,7.42-9.14,13.12h-1.04v-16.39h-22.19v97.45h22.89v-57.18c0-4.18.94-7.84,2.83-10.98,1.88-3.14,4.48-5.61,7.79-7.41,3.31-1.8,7.08-2.7,11.31-2.7,1.92,0,3.92.12,6,.35,2.09.23,3.62.52,4.61.87v-21.09c-1.04-.17-2.37-.32-3.96-.44-1.6-.12-3-.17-4.22-.17Z"/>
    <path class="cls-2" d="m1172.71,409.63c-3.66,0-6.79,1.22-9.4,3.66s-3.92,5.4-3.92,8.89,1.31,6.36,3.92,8.8c2.61,2.44,5.74,3.66,9.4,3.66s6.7-1.22,9.31-3.66c2.61-2.44,3.92-5.4,3.92-8.89s-1.3-6.36-3.92-8.8c-2.61-2.44-5.71-3.66-9.31-3.66Z"/>
    <rect class="cls-2" x="1161.22" y="448.33" width="22.89" height="97.45"/>
    <path class="cls-2" d="m1234.15,409.8c-5.57,0-10.66,1.08-15.27,3.22-4.61,2.15-8.28,5.4-11.01,9.76-2.73,4.36-4.09,9.82-4.09,16.39v9.15h-14.27v17.78h14.27v79.67h22.8v-79.67h20.28v-17.78h-20.28v-7.5c0-3.84.91-6.8,2.74-8.89,1.83-2.09,4.86-3.14,9.09-3.14,1.86,0,3.51.16,4.96.48,1.45.32,2.64.65,3.57,1l4.7-17.78c-1.45-.52-3.73-1.1-6.83-1.74-3.1-.64-6.66-.96-10.66-.96Z"/>
    <path class="cls-2" d="m1266.18,409.63c-3.66,0-6.79,1.22-9.4,3.66s-3.92,5.4-3.92,8.89,1.31,6.36,3.92,8.8c2.61,2.44,5.74,3.66,9.4,3.66s6.7-1.22,9.31-3.66c2.61-2.44,3.92-5.4,3.92-8.89s-1.3-6.36-3.92-8.8c-2.61-2.44-5.71-3.66-9.31-3.66Z"/>
    <rect class="cls-2" x="1254.69" y="448.33" width="22.89" height="97.45"/>
    <path class="cls-2" d="m1321.13,469.38c3.51-2.53,7.61-3.79,12.31-3.79,3.71,0,6.92.73,9.62,2.18,2.7,1.45,4.89,3.43,6.57,5.93,1.68,2.5,2.81,5.32,3.39,8.46h21.93c-.52-7.03-2.6-13.18-6.22-18.44-3.63-5.26-8.48-9.34-14.58-12.25-6.09-2.91-13.11-4.36-21.06-4.36-9.46,0-17.67,2.14-24.63,6.41-6.96,4.27-12.33,10.18-16.1,17.74-3.77,7.55-5.66,16.3-5.66,26.24s1.86,18.51,5.57,26.06c3.71,7.55,9.05,13.47,16.01,17.74,6.96,4.27,15.29,6.41,24.97,6.41,8.12,0,15.2-1.5,21.23-4.49,6.03-2.99,10.82-7.13,14.36-12.42,3.54-5.29,5.57-11.39,6.09-18.3h-21.93c-.99,5.23-3.23,9.33-6.74,12.29-3.51,2.96-7.79,4.45-12.83,4.45-4.76,0-8.91-1.29-12.44-3.88-3.54-2.58-6.27-6.28-8.18-11.07-1.92-4.79-2.87-10.5-2.87-17.13s.99-12.2,2.96-16.91c1.97-4.71,4.71-8.33,8.22-10.85Z"/>
    <path class="cls-2" d="m1450.23,454.17c-3.89-2.56-8.15-4.37-12.79-5.45-4.64-1.08-9.28-1.61-13.92-1.61-6.79,0-12.98,1-18.58,3.01s-10.34,5-14.23,8.98c-3.89,3.98-6.67,8.93-8.35,14.86l21.32,3.05c1.16-3.31,3.38-6.19,6.66-8.63,3.28-2.44,7.73-3.66,13.36-3.66,5.34,0,9.4,1.31,12.18,3.92,2.79,2.62,4.18,6.28,4.18,10.98v.44c0,2.21-.8,3.83-2.39,4.88-1.6,1.05-4.16,1.8-7.7,2.27-3.54.47-8.18,1.02-13.92,1.66-4.7.47-9.25,1.26-13.66,2.4-4.41,1.13-8.37,2.78-11.88,4.92-3.51,2.15-6.28,5.03-8.31,8.63-2.03,3.6-3.05,8.14-3.05,13.6,0,6.39,1.42,11.77,4.26,16.12,2.84,4.36,6.73,7.66,11.66,9.89,4.93,2.24,10.5,3.36,16.71,3.36,5.1,0,9.53-.73,13.27-2.18,3.74-1.45,6.88-3.36,9.4-5.71s4.48-4.87,5.87-7.54h.7v13.42h22.02v-65.2c0-6.45-1.16-11.83-3.48-16.13-2.32-4.3-5.42-7.73-9.31-10.29Zm-10.01,56.66c0,3.6-.93,6.93-2.79,9.98-1.86,3.05-4.47,5.49-7.83,7.32-3.37,1.83-7.37,2.75-12.01,2.75s-8.67-1.08-11.75-3.23c-3.08-2.15-4.61-5.35-4.61-9.59,0-2.96.78-5.38,2.35-7.24,1.57-1.86,3.7-3.33,6.4-4.4,2.7-1.08,5.76-1.84,9.18-2.31,1.51-.17,3.29-.41,5.35-.7,2.06-.29,4.16-.64,6.31-1.05,2.15-.41,4.06-.86,5.74-1.35,1.68-.49,2.9-1.03,3.66-1.61v11.42Z"/>
    <path class="cls-2" d="m1519.5,527.47c-1.22.17-2.32.26-3.31.26-3.66,0-6.32-.92-8.01-2.75-1.68-1.83-2.52-4.66-2.52-8.5v-50.38h19.23v-17.78h-19.23v-23.19h-22.89v23.19h-13.66v17.78h13.66v54.13c0,8.31,2.58,14.86,7.75,19.66,5.16,4.79,12.27,7.19,21.32,7.19,2.49,0,4.99-.19,7.48-.57,2.49-.38,4.96-.94,7.4-1.7l-3.92-17.96c-.99.23-2.09.44-3.31.61Z"/>
    <path class="cls-2" d="m1619.23,496.27c0-8.54-1.19-15.91-3.57-22.1-2.38-6.19-5.64-11.29-9.79-15.3-4.15-4.01-8.91-6.97-14.27-8.89-5.37-1.92-11.04-2.88-17.01-2.88-9.28,0-17.35,2.12-24.19,6.36-6.85,4.24-12.15,10.16-15.92,17.74-3.77,7.58-5.66,16.4-5.66,26.46s1.9,19,5.7,26.5c3.8,7.5,9.24,13.29,16.32,17.39,7.08,4.1,15.49,6.15,25.24,6.15,7.54,0,14.23-1.15,20.06-3.44,5.83-2.29,10.62-5.55,14.36-9.76,3.74-4.21,6.31-9.14,7.7-14.77l-21.41-2.53c-1.04,2.79-2.54,5.13-4.48,7.02-1.94,1.89-4.26,3.3-6.96,4.23-2.7.93-5.67,1.39-8.92,1.39-4.99,0-9.36-1.1-13.1-3.31-3.74-2.21-6.64-5.42-8.7-9.63-1.85-3.79-2.87-8.29-3.05-13.47h67.66v-7.15Zm-57.08-27.81c3.48-2.32,7.69-3.49,12.62-3.49s9.05,1.16,12.36,3.49,5.8,5.54,7.48,9.63c1.2,2.93,1.97,6.23,2.31,9.89h-45.26c.3-3.66,1.15-7.05,2.57-10.15,1.8-3.92,4.44-7.05,7.92-9.37Z"/>
  </g>
</svg>