<?xml version="1.0" encoding="UTF-8"?>
<svg id="Layer_1" data-name="Layer 1" xmlns="http://www.w3.org/2000/svg" viewBox="0 0 1630.65 723.2">
  <defs>
    <style>
      .cls-1 {
        fill: #0073ff;
      }

      .cls-1, .cls-2 {
        stroke-width: 0px;
      }

      .cls-2 {
        fill: #02020a;
      }
    </style>
  </defs>
  <g>
    <path class="cls-2" d="m35.84,545.78v-129.88h84.41v19.7h-60.91v34.87h56.39v19.44h-56.39v36.17h61.26v19.7H35.84Z"/>
    <path class="cls-2" d="m175.25,547.7c-9.69,0-18.01-2.14-24.98-6.41-6.96-4.27-12.3-10.18-16.01-17.74-3.71-7.55-5.57-16.24-5.57-26.06s1.88-18.68,5.66-26.24c3.77-7.55,9.14-13.47,16.1-17.74,6.96-4.27,15.17-6.41,24.63-6.41,7.95,0,14.97,1.45,21.06,4.36,6.09,2.91,10.95,6.99,14.58,12.25,3.62,5.26,5.7,11.4,6.22,18.44h-21.93c-.58-3.14-1.71-5.96-3.39-8.46-1.68-2.5-3.87-4.47-6.57-5.93-2.7-1.45-5.9-2.18-9.62-2.18-4.7,0-8.8,1.26-12.31,3.79-3.51,2.53-6.25,6.15-8.22,10.85-1.97,4.71-2.96,10.34-2.96,16.91s.96,12.33,2.87,17.13c1.91,4.79,4.64,8.49,8.18,11.07,3.54,2.59,7.69,3.88,12.44,3.88,5.05,0,9.32-1.48,12.84-4.45,3.51-2.96,5.76-7.06,6.74-12.29h21.93c-.52,6.92-2.55,13.02-6.09,18.3-3.54,5.29-8.33,9.43-14.36,12.42-6.03,2.99-13.11,4.49-21.23,4.49Z"/>
    <path class="cls-2" d="m248.61,488.77v57.01h-22.89v-129.88h22.36v49.07h1.22c2.26-5.52,5.77-9.88,10.53-13.07,4.76-3.2,10.88-4.79,18.36-4.79,6.73,0,12.6,1.42,17.62,4.27,5.02,2.85,8.92,7,11.7,12.46,2.79,5.46,4.18,12.12,4.18,19.96v61.98h-22.97v-58.4c0-6.62-1.68-11.75-5.05-15.38-3.37-3.63-8.06-5.45-14.1-5.45-4.06,0-7.67.87-10.83,2.62-3.16,1.74-5.64,4.26-7.44,7.54-1.8,3.28-2.7,7.31-2.7,12.07Z"/>
    <path class="cls-2" d="m373.49,448.33v17.78h-55.78v-17.78h55.78Zm-42.12-23.19h22.89v91.35c0,3.84.84,6.67,2.52,8.5,1.68,1.83,4.35,2.75,8.01,2.75.99,0,2.09-.09,3.31-.26,1.22-.17,2.32-.38,3.31-.61l3.92,17.96c-2.44.76-4.9,1.32-7.4,1.7-2.5.38-4.99.57-7.48.57-9.05,0-16.16-2.4-21.32-7.19-5.16-4.79-7.75-11.35-7.75-19.66v-95.1Z"/>
    <path class="cls-2" d="m424.66,547.7c-9.75,0-18.16-2.05-25.24-6.15-7.08-4.1-12.52-9.89-16.32-17.39-3.8-7.5-5.7-16.33-5.7-26.5s1.88-18.87,5.66-26.46c3.77-7.58,9.08-13.5,15.92-17.74,6.84-4.24,14.91-6.36,24.19-6.36,5.97,0,11.65.96,17.01,2.88,5.37,1.92,10.12,4.88,14.27,8.89,4.15,4.01,7.41,9.11,9.79,15.3,2.38,6.19,3.57,13.55,3.57,22.1v7.15h-79.71v-15.43h68.31l-10.7,4.53c0-5.52-.84-10.33-2.52-14.43s-4.18-7.31-7.48-9.63c-3.31-2.32-7.43-3.49-12.36-3.49s-9.14,1.16-12.62,3.49c-3.48,2.32-6.12,5.45-7.92,9.37-1.8,3.92-2.7,8.3-2.7,13.12v10.72c0,5.93,1.03,11,3.09,15.21,2.06,4.21,4.96,7.42,8.7,9.63,3.74,2.21,8.11,3.31,13.1,3.31,3.25,0,6.22-.46,8.92-1.39,2.7-.93,5.02-2.34,6.96-4.23,1.94-1.89,3.44-4.23,4.48-7.02l21.41,2.53c-1.39,5.64-3.96,10.56-7.7,14.77-3.74,4.21-8.53,7.47-14.36,9.76-5.83,2.29-12.52,3.44-20.06,3.44Z"/>
    <path class="cls-2" d="m511.6,545.78v-129.88h49.78c9.34,0,17.11,1.47,23.32,4.4,6.21,2.94,10.85,6.94,13.92,12.03,3.07,5.09,4.61,10.82,4.61,17.22,0,5.29-1,9.81-3,13.55-2,3.75-4.71,6.79-8.14,9.11-3.42,2.32-7.25,4.01-11.49,5.06v1.31c4.64.17,9.06,1.56,13.27,4.14,4.21,2.59,7.66,6.2,10.36,10.85,2.7,4.65,4.05,10.26,4.05,16.82s-1.61,12.77-4.83,18.09c-3.22,5.32-8.09,9.53-14.62,12.64-6.53,3.11-14.75,4.66-24.67,4.66h-52.56Zm23.5-74.61h23.32c4,0,7.63-.75,10.88-2.27,3.25-1.51,5.82-3.65,7.7-6.41,1.88-2.76,2.83-6.03,2.83-9.81,0-5-1.77-9.14-5.31-12.42-3.54-3.28-8.73-4.93-15.58-4.93h-23.84v35.83Zm0,55h25.24c8.53,0,14.69-1.66,18.49-4.97,3.8-3.31,5.7-7.52,5.7-12.64,0-3.89-.96-7.38-2.87-10.46-1.91-3.08-4.63-5.52-8.14-7.32-3.51-1.8-7.64-2.7-12.4-2.7h-26.02v38.09Z"/>
    <path class="cls-2" d="m660.67,547.7c-9.75,0-18.16-2.05-25.24-6.15-7.08-4.1-12.52-9.89-16.32-17.39-3.8-7.5-5.7-16.33-5.7-26.5s1.88-18.87,5.66-26.46c3.77-7.58,9.08-13.5,15.92-17.74,6.84-4.24,14.91-6.36,24.19-6.36,5.97,0,11.65.96,17.01,2.88,5.37,1.92,10.12,4.88,14.27,8.89,4.15,4.01,7.41,9.11,9.79,15.3,2.38,6.19,3.57,13.55,3.57,22.1v7.15h-79.71v-15.43h68.31l-10.7,4.53c0-5.52-.84-10.33-2.52-14.43s-4.18-7.31-7.48-9.63c-3.31-2.32-7.43-3.49-12.36-3.49s-9.14,1.16-12.62,3.49c-3.48,2.32-6.12,5.45-7.92,9.37-1.8,3.92-2.7,8.3-2.7,13.12v10.72c0,5.93,1.03,11,3.09,15.21,2.06,4.21,4.96,7.42,8.7,9.63,3.74,2.21,8.11,3.31,13.1,3.31,3.25,0,6.22-.46,8.92-1.39,2.7-.93,5.02-2.34,6.96-4.23,1.94-1.89,3.44-4.23,4.48-7.02l21.41,2.53c-1.39,5.64-3.96,10.56-7.7,14.77-3.74,4.21-8.53,7.47-14.36,9.76-5.83,2.29-12.52,3.44-20.06,3.44Z"/>
    <path class="cls-2" d="m755,547.7c-9.51,0-17.75-2.09-24.71-6.28-6.96-4.18-12.34-10.05-16.14-17.61-3.8-7.55-5.7-16.33-5.7-26.32s1.9-18.87,5.7-26.46c3.8-7.58,9.18-13.47,16.14-17.65,6.96-4.18,15.2-6.28,24.71-6.28s17.75,2.09,24.71,6.28c6.96,4.18,12.36,10.07,16.19,17.65s5.74,16.4,5.74,26.46-1.91,18.77-5.74,26.32c-3.83,7.55-9.22,13.42-16.19,17.61-6.96,4.18-15.2,6.28-24.71,6.28Zm0-18.48c5.28,0,9.63-1.41,13.05-4.23,3.42-2.82,5.99-6.64,7.7-11.46,1.71-4.82,2.57-10.17,2.57-16.04s-.86-11.39-2.57-16.21c-1.71-4.82-4.28-8.64-7.7-11.46-3.42-2.82-7.78-4.23-13.05-4.23s-9.49,1.41-12.97,4.23c-3.48,2.82-6.08,6.64-7.79,11.46-1.71,4.82-2.57,10.23-2.57,16.21s.86,11.22,2.57,16.04c1.71,4.82,4.31,8.64,7.79,11.46,3.48,2.82,7.8,4.23,12.97,4.23Z"/>
    <path class="cls-2" d="m853.08,547.7c-9.51,0-17.75-2.09-24.71-6.28-6.96-4.18-12.34-10.05-16.14-17.61-3.8-7.55-5.7-16.33-5.7-26.32s1.9-18.87,5.7-26.46c3.8-7.58,9.18-13.47,16.14-17.65,6.96-4.18,15.2-6.28,24.71-6.28s17.75,2.09,24.71,6.28c6.96,4.18,12.36,10.07,16.19,17.65s5.74,16.4,5.74,26.46-1.91,18.77-5.74,26.32c-3.83,7.55-9.22,13.42-16.19,17.61-6.96,4.18-15.2,6.28-24.71,6.28Zm0-18.48c5.28,0,9.63-1.41,13.05-4.23,3.42-2.82,5.99-6.64,7.7-11.46,1.71-4.82,2.57-10.17,2.57-16.04s-.86-11.39-2.57-16.21c-1.71-4.82-4.28-8.64-7.7-11.46-3.42-2.82-7.78-4.23-13.05-4.23s-9.49,1.41-12.97,4.23c-3.48,2.82-6.08,6.64-7.79,11.46-1.71,4.82-2.57,10.23-2.57,16.21s.86,11.22,2.57,16.04c1.71,4.82,4.31,8.64,7.79,11.46,3.48,2.82,7.8,4.23,12.97,4.23Z"/>
    <path class="cls-2" d="m908.77,545.78v-97.45h22.19v16.39h1.04c1.74-5.69,4.79-10.07,9.14-13.12,4.35-3.05,9.31-4.58,14.88-4.58,1.22,0,2.62.06,4.22.17,1.59.12,2.92.26,3.96.44v21.09c-.99-.35-2.52-.64-4.61-.87-2.09-.23-4.09-.35-6-.35-4.24,0-8.01.9-11.31,2.7-3.31,1.8-5.9,4.27-7.79,7.41-1.89,3.14-2.83,6.8-2.83,10.98v57.18h-22.89Z"/>
    <path class="cls-2" d="m1001.1,547.52c-7.6,0-14.43-1.96-20.49-5.88-6.06-3.92-10.83-9.63-14.31-17.13-3.48-7.5-5.22-16.59-5.22-27.28s1.78-20.02,5.35-27.46c3.57-7.44,8.37-13.08,14.4-16.91,6.03-3.83,12.79-5.75,20.28-5.75,5.74,0,10.44.96,14.1,2.88,3.65,1.92,6.57,4.23,8.75,6.93s3.84,5.22,5,7.54h.96v-48.55h22.8v129.88h-22.36v-15.43h-1.39c-1.22,2.38-2.93,4.9-5.13,7.54-2.21,2.65-5.13,4.91-8.79,6.8-3.66,1.89-8.3,2.83-13.92,2.83Zm6.35-18.83c4.87,0,9.01-1.32,12.4-3.97,3.39-2.64,5.99-6.33,7.79-11.07,1.8-4.74,2.7-10.24,2.7-16.52s-.89-11.84-2.65-16.52c-1.77-4.68-4.35-8.29-7.75-10.85-3.39-2.56-7.56-3.84-12.49-3.84s-9.28,1.34-12.71,4.01c-3.42,2.67-5.99,6.36-7.7,11.07-1.71,4.71-2.57,10.08-2.57,16.13s.87,11.45,2.61,16.21c1.74,4.77,4.31,8.51,7.7,11.24,3.39,2.73,7.61,4.1,12.66,4.1Z"/>
    <path class="cls-2" d="m1109.19,547.7c-9.75,0-18.16-2.05-25.24-6.15-7.08-4.1-12.52-9.89-16.32-17.39-3.8-7.5-5.7-16.33-5.7-26.5s1.88-18.87,5.66-26.46c3.77-7.58,9.08-13.5,15.92-17.74,6.84-4.24,14.91-6.36,24.19-6.36,5.97,0,11.65.96,17.01,2.88,5.37,1.92,10.12,4.88,14.27,8.89,4.15,4.01,7.41,9.11,9.79,15.3,2.38,6.19,3.57,13.55,3.57,22.1v7.15h-79.71v-15.43h68.31l-10.7,4.53c0-5.52-.84-10.33-2.52-14.43s-4.18-7.31-7.48-9.63c-3.31-2.32-7.43-3.49-12.36-3.49s-9.14,1.16-12.62,3.49c-3.48,2.32-6.12,5.45-7.92,9.37-1.8,3.92-2.7,8.3-2.7,13.12v10.72c0,5.93,1.03,11,3.09,15.21,2.06,4.21,4.96,7.42,8.7,9.63,3.74,2.21,8.11,3.31,13.1,3.31,3.25,0,6.22-.46,8.92-1.39,2.7-.93,5.02-2.34,6.96-4.23,1.94-1.89,3.44-4.23,4.48-7.02l21.41,2.53c-1.39,5.64-3.96,10.56-7.7,14.77-3.74,4.21-8.53,7.47-14.36,9.76-5.83,2.29-12.52,3.44-20.06,3.44Z"/>
    <path class="cls-2" d="m1184.03,415.9v129.88h-22.89v-129.88h22.89Z"/>
    <path class="cls-2" d="m1208.83,434.64c-3.66,0-6.79-1.22-9.4-3.66-2.61-2.44-3.92-5.37-3.92-8.8s1.31-6.45,3.92-8.89c2.61-2.44,5.74-3.66,9.4-3.66s6.7,1.22,9.31,3.66c2.61,2.44,3.92,5.38,3.92,8.8s-1.3,6.45-3.92,8.89c-2.61,2.44-5.71,3.66-9.31,3.66Zm-11.49,111.14v-97.45h22.89v97.45h-22.89Z"/>
    <path class="cls-2" d="m1256.44,488.77v57.01h-22.89v-97.45h22.45v16.65h1.13c2.2-5.46,5.67-9.81,10.4-13.03,4.73-3.23,10.75-4.84,18.06-4.84,6.73,0,12.59,1.42,17.58,4.27,4.99,2.85,8.86,7.02,11.62,12.51,2.75,5.49,4.13,12.13,4.13,19.92v61.98h-22.89v-58.4c0-6.51-1.68-11.61-5.05-15.3-3.37-3.69-8.01-5.54-13.92-5.54-4,0-7.56.87-10.66,2.62-3.1,1.74-5.54,4.26-7.31,7.54-1.77,3.28-2.65,7.31-2.65,12.07Z"/>
    <path class="cls-2" d="m1374.35,584.31c-12.36,0-22.07-2.4-29.15-7.19-7.08-4.79-11.63-10.59-13.66-17.39l20.54-5.06c.93,1.92,2.29,3.82,4.09,5.71,1.8,1.89,4.21,3.46,7.22,4.71,3.02,1.25,6.82,1.87,11.4,1.87,6.5,0,11.88-1.58,16.14-4.75,4.26-3.17,6.4-8.32,6.4-15.47v-18.39h-1.31c-1.1,2.32-2.79,4.72-5.05,7.19-2.26,2.47-5.24,4.56-8.92,6.28-3.68,1.71-8.34,2.57-13.97,2.57-7.43,0-14.17-1.77-20.23-5.32-6.06-3.54-10.88-8.83-14.45-15.86-3.57-7.03-5.35-15.83-5.35-26.41s1.78-19.73,5.35-27.11c3.57-7.38,8.4-12.99,14.49-16.82,6.09-3.83,12.88-5.75,20.36-5.75,5.69,0,10.38.96,14.1,2.88,3.71,1.92,6.67,4.23,8.88,6.93,2.2,2.7,3.92,5.22,5.13,7.54h1.22v-16.13h22.36v99.02c0,8.31-1.97,15.2-5.92,20.66-3.95,5.46-9.35,9.54-16.23,12.25-6.88,2.7-14.69,4.05-23.45,4.05Zm.17-57.97c7.31,0,12.95-2.63,16.93-7.89,3.97-5.26,5.96-12.54,5.96-21.83,0-6.16-.87-11.53-2.61-16.13-1.74-4.59-4.32-8.16-7.74-10.72-3.42-2.56-7.6-3.84-12.53-3.84s-9.37,1.34-12.79,4.01c-3.42,2.67-5.99,6.32-7.7,10.94-1.71,4.62-2.57,9.86-2.57,15.73s.87,11.13,2.61,15.6c1.74,4.48,4.34,7.95,7.79,10.42,3.45,2.47,7.67,3.7,12.66,3.7Z"/>
    <path class="cls-2" d="m1476.34,547.7c-9.75,0-18.16-2.05-25.24-6.15-7.08-4.1-12.52-9.89-16.32-17.39-3.8-7.5-5.7-16.33-5.7-26.5s1.88-18.87,5.66-26.46c3.77-7.58,9.08-13.5,15.92-17.74,6.84-4.24,14.91-6.36,24.19-6.36,5.97,0,11.65.96,17.01,2.88,5.37,1.92,10.12,4.88,14.27,8.89,4.15,4.01,7.41,9.11,9.79,15.3,2.38,6.19,3.57,13.55,3.57,22.1v7.15h-79.71v-15.43h68.31l-10.7,4.53c0-5.52-.84-10.33-2.52-14.43s-4.18-7.31-7.48-9.63c-3.31-2.32-7.43-3.49-12.36-3.49s-9.14,1.16-12.62,3.49c-3.48,2.32-6.12,5.45-7.92,9.37-1.8,3.92-2.7,8.3-2.7,13.12v10.72c0,5.93,1.03,11,3.09,15.21,2.06,4.21,4.96,7.42,8.7,9.63,3.74,2.21,8.11,3.31,13.1,3.31,3.25,0,6.22-.46,8.92-1.39,2.7-.93,5.02-2.34,6.96-4.23,1.94-1.89,3.44-4.23,4.48-7.02l21.41,2.53c-1.39,5.64-3.96,10.56-7.7,14.77-3.74,4.21-8.53,7.47-14.36,9.76-5.83,2.29-12.52,3.44-20.06,3.44Z"/>
    <path class="cls-2" d="m1551.18,488.77v57.01h-22.89v-97.45h22.45v16.65h1.13c2.2-5.46,5.67-9.81,10.4-13.03,4.73-3.23,10.75-4.84,18.06-4.84,6.73,0,12.59,1.42,17.58,4.27,4.99,2.85,8.86,7.02,11.62,12.51,2.75,5.49,4.13,12.13,4.13,19.92v61.98h-22.89v-58.4c0-6.51-1.68-11.61-5.05-15.3-3.37-3.69-8.01-5.54-13.92-5.54-4,0-7.56.87-10.66,2.62-3.1,1.74-5.54,4.26-7.31,7.54-1.77,3.28-2.65,7.31-2.65,12.07Z"/>
  </g>
  <path class="cls-1" d="m719.28,68.38c-46.79,0-84.72,37.93-84.72,84.72h141.91s27.53-84.72,27.53-84.72h-84.72Z"/>
  <path class="cls-1" d="m894.43,72.53c-14.46-44.5-62.25-68.85-106.75-54.39h0l43.85,134.97h89.08s-26.18-80.57-26.18-80.57Z"/>
  <path class="cls-1" d="m944.61,240.38c37.85-27.5,46.25-80.48,18.74-118.34h0l-114.81,83.41,27.53,84.72,68.54-49.8Z"/>
  <path class="cls-1" d="m800.47,339.98c37.85,27.5,90.84,19.11,118.34-18.74h0l-114.81-83.41-72.07,52.36,68.54,49.8Z"/>
  <path class="cls-1" d="m661.21,233.67c-14.46,44.5,9.89,92.29,54.39,106.75h0l43.85-134.97-72.07-52.36-26.18,80.57Z"/>
  <g>
    <g>
      <path class="cls-2" d="m797.9,666.67c-1.37-1.1-2.9-2.02-4.6-2.76-1.7-.73-3.47-1.32-5.31-1.76l-4.55-1.15c-1.33-.35-2.64-.79-3.92-1.31-1.28-.53-2.33-1.22-3.15-2.08-.82-.86-1.23-1.97-1.23-3.33,0-1.23.35-2.32,1.05-3.28.7-.96,1.71-1.72,3.03-2.26,1.32-.55,2.9-.82,4.73-.82,2.64,0,4.78.57,6.41,1.72,1.63,1.15,2.55,2.77,2.77,4.87h8.55c-.07-2.76-.84-5.2-2.33-7.32-1.49-2.12-3.54-3.79-6.16-4.99-2.62-1.2-5.67-1.81-9.14-1.81s-6.46.6-9.16,1.81c-2.7,1.2-4.82,2.88-6.37,5.04-1.55,2.16-2.33,4.68-2.33,7.57,0,3.52,1.16,6.34,3.47,8.45,2.32,2.11,5.48,3.68,9.5,4.71l5.54,1.44c1.77.44,3.31.94,4.62,1.51,1.31.57,2.34,1.26,3.08,2.08.74.82,1.11,1.87,1.11,3.13,0,1.4-.42,2.63-1.25,3.68-.83,1.05-1.98,1.87-3.44,2.46-1.46.59-3.16.89-5.08.89s-3.5-.28-5-.85c-1.5-.57-2.7-1.42-3.62-2.54-.92-1.13-1.44-2.54-1.57-4.25h-8.72c.13,3.24.98,5.99,2.56,8.25,1.57,2.26,3.76,3.99,6.55,5.17,2.8,1.18,6.09,1.77,9.9,1.77s7.21-.61,9.96-1.84c2.75-1.23,4.86-2.93,6.32-5.1,1.46-2.18,2.2-4.69,2.2-7.53,0-2.12-.4-3.97-1.2-5.55-.8-1.57-1.88-2.92-3.24-4.02Z"/>
      <polygon class="cls-2" points="839.76 653.27 829.67 653.27 816.53 668 815.9 668 815.9 641.05 807.28 641.05 807.28 689.96 815.9 689.96 815.9 677.66 819.04 674.29 830.26 689.96 840.58 689.96 825.56 669.13 839.76 653.27"/>
      <path class="cls-2" d="m868.87,657.24c-1.56-1.51-3.35-2.63-5.37-3.35-2.02-.72-4.16-1.08-6.41-1.08-3.5,0-6.53.8-9.11,2.4-2.58,1.6-4.58,3.82-6,6.68-1.42,2.86-2.13,6.18-2.13,9.96s.71,7.16,2.15,9.98c1.43,2.82,3.48,5.01,6.14,6.55,2.66,1.54,5.83,2.31,9.5,2.31,2.84,0,5.36-.43,7.55-1.3,2.2-.86,4-2.09,5.41-3.68,1.41-1.59,2.38-3.44,2.9-5.56l-8.06-.95c-.39,1.05-.96,1.93-1.69,2.64-.73.71-1.61,1.24-2.62,1.59-1.02.35-2.14.52-3.36.52-1.88,0-3.52-.42-4.93-1.25-1.41-.83-2.5-2.04-3.28-3.63-.7-1.43-1.08-3.12-1.15-5.07h25.48v-2.69c0-3.22-.45-5.99-1.34-8.32-.9-2.33-2.13-4.25-3.69-5.76Zm-16.47,3.61c1.31-.87,2.89-1.31,4.75-1.31s3.41.44,4.65,1.31c1.25.88,2.18,2.08,2.82,3.63.45,1.1.74,2.35.87,3.73h-17.04c.11-1.38.43-2.66.97-3.82.68-1.48,1.67-2.65,2.98-3.53Z"/>
      <path class="cls-2" d="m906,657.24c-1.56-1.51-3.35-2.63-5.37-3.35-2.02-.72-4.16-1.08-6.41-1.08-3.5,0-6.53.8-9.11,2.4-2.58,1.6-4.58,3.82-6,6.68-1.42,2.86-2.13,6.18-2.13,9.96s.72,7.16,2.15,9.98c1.43,2.82,3.48,5.01,6.14,6.55,2.67,1.54,5.83,2.31,9.5,2.31,2.84,0,5.36-.43,7.55-1.3,2.2-.86,4-2.09,5.41-3.68,1.41-1.59,2.38-3.44,2.9-5.56l-8.06-.95c-.39,1.05-.96,1.93-1.69,2.64-.73.71-1.61,1.24-2.62,1.59-1.02.35-2.14.52-3.36.52-1.88,0-3.52-.42-4.93-1.25-1.41-.83-2.5-2.04-3.28-3.63-.7-1.43-1.08-3.12-1.15-5.07h25.48v-2.69c0-3.22-.45-5.99-1.34-8.32-.9-2.33-2.13-4.25-3.69-5.76Zm-16.47,3.61c1.31-.87,2.89-1.31,4.75-1.31s3.41.44,4.65,1.31c1.25.88,2.18,2.08,2.82,3.63.45,1.1.74,2.35.87,3.73h-17.04c.11-1.38.43-2.66.97-3.82.68-1.48,1.67-2.65,2.98-3.53Z"/>
      <path class="cls-2" d="m942.78,654.97c-2.27-1.44-4.82-2.17-7.64-2.17-2.16,0-3.94.36-5.32,1.08-1.39.72-2.49,1.59-3.29,2.61-.81,1.02-1.43,1.96-1.87,2.84h-.52v-6.07h-8.45v50.42h8.62v-19.53h.36c.44.9,1.08,1.84,1.92,2.84.84,1,1.95,1.85,3.34,2.56,1.39.71,3.12,1.07,5.19,1.07,2.88,0,5.47-.74,7.75-2.22,2.28-1.48,4.08-3.63,5.39-6.45,1.31-2.82,1.97-6.25,1.97-10.27s-.67-7.54-2.02-10.34c-1.34-2.8-3.15-4.92-5.42-6.37Zm-2.36,22.78c-.66,1.79-1.62,3.21-2.9,4.23-1.28,1.03-2.87,1.54-4.77,1.54s-3.4-.5-4.69-1.49c-1.29-1-2.27-2.38-2.93-4.17-.67-1.78-1-3.86-1-6.22s.33-4.46,1-6.22c.67-1.76,1.64-3.12,2.92-4.09,1.28-.96,2.85-1.44,4.7-1.44s3.52.5,4.78,1.51c1.27,1.01,2.23,2.4,2.88,4.17.66,1.77.98,3.8.98,6.07s-.33,4.31-.98,6.11Z"/>
      <path class="cls-2" d="m982.45,657.24c-1.56-1.51-3.35-2.63-5.37-3.35-2.02-.72-4.16-1.08-6.41-1.08-3.5,0-6.53.8-9.11,2.4-2.58,1.6-4.58,3.82-6,6.68-1.42,2.86-2.13,6.18-2.13,9.96s.72,7.16,2.15,9.98c1.43,2.82,3.48,5.01,6.14,6.55,2.66,1.54,5.83,2.31,9.5,2.31,2.84,0,5.36-.43,7.55-1.3,2.2-.86,4-2.09,5.41-3.68,1.41-1.59,2.38-3.44,2.9-5.56l-8.06-.95c-.39,1.05-.96,1.93-1.69,2.64-.73.71-1.61,1.24-2.62,1.59-1.02.35-2.14.52-3.36.52-1.88,0-3.52-.42-4.93-1.25-1.41-.83-2.5-2.04-3.28-3.63-.7-1.43-1.08-3.12-1.15-5.07h25.48v-2.69c0-3.22-.45-5.99-1.34-8.32-.9-2.33-2.13-4.25-3.69-5.76Zm-16.47,3.61c1.31-.87,2.89-1.31,4.75-1.31s3.41.44,4.65,1.31c1.25.88,2.18,2.08,2.82,3.63.45,1.1.74,2.35.87,3.73h-17.04c.11-1.38.43-2.66.97-3.82.68-1.48,1.67-2.65,2.98-3.53Z"/>
      <path class="cls-2" d="m1009.92,652.77c-2.1,0-3.96.57-5.6,1.72-1.64,1.15-2.79,2.8-3.44,4.94h-.39v-6.17h-8.36v36.7h8.62v-21.53c0-1.58.35-2.95,1.06-4.14.71-1.18,1.69-2.11,2.93-2.79,1.25-.68,2.66-1.02,4.26-1.02.72,0,1.47.04,2.26.13.79.09,1.36.2,1.74.33v-7.94c-.39-.07-.89-.12-1.49-.16-.6-.04-1.13-.07-1.59-.07Z"/>
      <path class="cls-2" d="m1043.38,672.6c-1.7-1.64-4.27-2.82-7.7-3.54l-6.26-1.31c-1.86-.42-3.18-.97-3.98-1.66-.8-.69-1.2-1.57-1.2-2.64,0-1.23.61-2.23,1.82-3.02,1.21-.79,2.71-1.18,4.51-1.18,1.99,0,3.53.46,4.62,1.39,1.09.93,1.8,2,2.13,3.2l7.83-.82c-.59-3.11-2.11-5.59-4.57-7.43-2.46-1.85-5.84-2.77-10.14-2.77-2.93,0-5.51.46-7.73,1.38-2.23.92-3.96,2.21-5.21,3.87-1.25,1.66-1.87,3.63-1.87,5.91,0,2.67.84,4.86,2.52,6.58,1.68,1.72,4.28,2.96,7.8,3.73l6.26,1.31c3.28.74,4.91,2.14,4.91,4.2,0,1.23-.62,2.26-1.87,3.1-1.25.84-2.9,1.26-4.95,1.26s-3.58-.42-4.83-1.26c-1.26-.84-2.07-2.08-2.44-3.73l-8.42.79c.55,3.37,2.18,6,4.9,7.89,2.72,1.89,6.32,2.84,10.8,2.84,3.06,0,5.76-.49,8.11-1.48,2.35-.99,4.19-2.36,5.52-4.14,1.33-1.77,2-3.81,2-6.11,0-2.6-.85-4.73-2.56-6.37Z"/>
    </g>
    <g>
      <circle class="cls-1" cx="728.04" cy="640.14" r="12.71"/>
      <circle class="cls-1" cx="677.21" cy="690.97" r="12.71"/>
      <path class="cls-1" d="m715.33,627.43h-25.42c-14.04,0-25.42,11.38-25.42,25.42s11.38,25.42,25.42,25.42v-25.42h25.42v-25.42Z"/>
      <path class="cls-1" d="m715.33,652.85v25.42h-25.42v25.42h25.42s0,0,0,0c14.04,0,25.42-11.38,25.42-25.42s-11.38-25.42-25.42-25.42Z"/>
    </g>
  </g>
  <g>
    <path class="cls-2" d="m587.62,690.62c-2.08,0-3.81-.36-5.2-1.07-1.39-.71-2.51-1.56-3.35-2.56-.84-1-1.48-1.94-1.92-2.84h-.53v5.81h-8.47v-48.91h8.63v18.29h.36c.44-.88,1.06-1.82,1.87-2.84.81-1.02,1.91-1.89,3.3-2.61,1.39-.72,3.17-1.08,5.33-1.08,2.82,0,5.37.72,7.65,2.17,2.28,1.44,4.09,3.57,5.43,6.37,1.35,2.8,2.02,6.25,2.02,10.34s-.66,7.45-1.97,10.28c-1.31,2.82-3.11,4.97-5.4,6.45-2.29,1.48-4.87,2.22-7.76,2.22Zm-2.36-7.09c1.9,0,3.5-.51,4.78-1.54,1.28-1.03,2.25-2.44,2.91-4.23.66-1.79.98-3.83.98-6.11s-.33-4.3-.98-6.07c-.66-1.77-1.62-3.16-2.89-4.17-1.27-1.01-2.87-1.51-4.79-1.51s-3.43.48-4.71,1.44c-1.28.96-2.25,2.33-2.92,4.09-.67,1.76-1,3.84-1,6.22s.33,4.44,1,6.22c.67,1.78,1.65,3.17,2.94,4.17,1.29,1,2.86,1.49,4.69,1.49Z"/>
    <path class="cls-2" d="m611.69,703.68c-1.18.02-2.27-.06-3.27-.25-1-.19-1.8-.4-2.41-.64l2.04-6.73.43.13c1.75.46,3.24.49,4.48.1,1.24-.39,2.23-1.59,2.97-3.58l.72-1.97-13.26-37.49h9.16l8.44,27.74h.39l8.47-27.74h9.22l-14.71,41.13c-.68,1.95-1.58,3.62-2.69,5.01-1.12,1.39-2.49,2.45-4.14,3.18-1.64.73-3.59,1.1-5.84,1.1Z"/>
  </g>
</svg>