<?xml version="1.0" encoding="UTF-8"?>
<svg id="Layer_1" data-name="Layer 1" xmlns="http://www.w3.org/2000/svg" viewBox="0 0 384.35 371.91">
  <defs>
    <style>
      .cls-1 {
        fill: #0073ff;
        stroke-width: 0px;
      }
    </style>
  </defs>
  <path class="cls-1" d="m97.85,65.53c-47.86,0-86.65,38.8-86.65,86.65h145.15s28.15-86.65,28.15-86.65h-86.65Z"/>
  <path class="cls-1" d="m276.99,69.77C262.2,24.26,213.32-.65,167.8,14.14h0l44.85,138.04h91.11s-26.78-82.41-26.78-82.41Z"/>
  <path class="cls-1" d="m328.31,241.46c38.72-28.13,47.3-82.32,19.17-121.04h0l-117.43,85.32,28.15,86.65,70.1-50.93Z"/>
  <path class="cls-1" d="m180.89,343.32c38.72,28.13,92.91,19.55,121.04-19.17h0l-117.43-85.32-73.71,53.55,70.1,50.93Z"/>
  <path class="cls-1" d="m38.46,234.59c-14.79,45.51,10.12,94.4,55.63,109.19h0l44.85-138.04-73.71-53.55-26.78,82.41Z"/>
</svg>